<svg xmlns="http://www.w3.org/2000/svg" width="105" height="60" viewBox="0 0 105 60">
    <path fill="#F7D34C" fill-rule="evenodd" d="M74.206 18.77l.029.036c-1.317.881-2.035 2.184-2.477 3.648-.687 2.278-1.19 4.612-2.175 6.794-1.255 2.781-3 5.102-5.868 6.411-1.15.525-2.246 1.172-3.398 1.689-1.904.853-3.762 1.825-5.816 2.51.056-.484.368-.618.568-.819 2.061-2.08 3.645-4.446 4.594-7.245.522-1.538.942-3.095 1.19-4.693a19.703 19.703 0 0 1 1.761-5.632c.282-.581.8-1.028 1.018-2.01-.988 1.248-1.786 2.266-2.596 3.275-.909 1.132-1.416 2.452-1.786 3.83-.643 2.4-1.384 4.764-2.443 7.016-2.194 4.667-5.406 8.146-10.727 9.147-.345.065-.67.227-1.011.324-1.77.508-3.54 1.025-5.74 1.172 2.158-1.757 3.245-3.9 4.237-6.044 2.138-4.62 3.612-9.516 5.861-14.41-1.241 1.058-2.15 2.038-2.723 3.278a51.239 51.239 0 0 0-1.459 3.5c-1.14 3.046-2.543 5.959-4.416 8.622-1.196 1.7-2.516 3.297-4.34 4.396-.996.6-1.964 1.249-2.939 1.885a4.029 4.029 0 0 1-1.996.66c-2.88.16-5.74.053-8.562-.633-1.172-.285-2.354-.616-3.547-.701-3.634-.262-7.201-.97-10.794-1.505-.299-.044-.724.035-.908-.452.187-.104.35-.224.53-.291 3.102-1.134 6.044-2.606 8.69-4.567 2.626-1.944 5.662-3.21 8.155-5.408 2.11-1.86 4.648-3.231 6.964-4.864 2.232-1.572 4.578-2.97 6.664-4.76 3.852-3.307 7.879-6.357 12.766-8.044 3.514-1.212 7.024-2.257 10.826-1.806 1.599.19 3.228.15 4.85.145 3.14-.009 6.251-.51 9.394-.452 3.599.068 7.164-.273 10.705-.945 2.509-.476 4.816-1.545 7.231-2.292 1.773-.547 3.338-1.438 4.775-2.59.204-.164.355-.524.735-.3.06.674-.358 1.145-.678 1.653-.915 1.453-1.91 2.862-2.742 4.362-2.527 4.557-5.327 8.938-8.309 13.208-2.604 3.729-4.84 7.717-7.992 11.06-1.109 1.176-2.263 2.33-3.265 3.59-1.84 2.313-3.941 4.34-6.097 6.342-3.501 3.255-7.604 5.514-11.873 7.527-2.022.954-4.21 1.442-6.323 2.13-1.62.526-3.275 1.004-4.995 1.23-3.535.464-7.066.322-10.6.12-1.926-.112-3.892-.266-5.625-1.136-4.021-2.015-7.761-4.507-11.355-7.21-.663-.499-1.245-1.106-2.12-1.893 1.948.037 3.488.208 5.025.48 2.795.497 5.602.945 8.453.767 1.584-.099 3.12-.03 4.64.482.814.274 1.685.317 2.55.368 2.477.144 4.95.356 7.394.818 3.824.721 7.635.77 11.431-.188.744-.188 1.538-.224 2.463-.808-3.357.064-6.424.575-9.492.157-3.055-.417-5.882-1.693-8.931-2.213.193-.555.539-.53.808-.607 1.848-.534 3.708-1.028 5.547-1.59a8.028 8.028 0 0 1 2.998-.338c1.629.128 3.235-.024 4.844-.23 3.214-.41 6.422-.878 9.645-1.182 2.026-.19 4.01-.543 5.988-.98.58-.129 1.178-.24 1.643-.754-5.39.44-10.762.341-16.124-.052-.024-.233.109-.341.251-.367 1.5-.275 2.613-1.206 3.712-2.168.149-.13.35-.202.517-.314 2.761-1.86 5.923-2.47 9.13-2.922 2.304-.325 4.612-.61 6.917-.921.253-.034.612.067.66-.508-2.697.3-5.314-.55-8.005-.166.074-.447.388-.545.636-.69 1.311-.768 2.612-1.558 3.95-2.278 6.736-3.626 12.438-8.492 17.308-14.373 2.212-2.672 3.973-5.68 6.55-8.533-1.052.299-1.916.441-2.19 1.13-.578 1.441-1.818 2.28-2.725 3.415-2.855 3.571-6.235 6.638-9.483 9.83-2.4 2.36-5.216 4.177-8.012 6.008a46.651 46.651 0 0 1-5.886 3.28c.08-.534.282-.864.47-1.226.624-1.211 1.225-2.432 1.678-3.728.96-2.746 1.052-5.67 1.792-8.457M1.61 45.8c.675-.013 1.538.016 2.392-.058 2.86-.247 5.657.128 8.417.831.984.25 1.874.704 2.713 1.31 2.05 1.478 4.065 2.993 5.999 4.624 3.08 2.598 6.549 4.544 10.25 6.125 2.055.879 4.203 1.156 6.37 1.233 3.99.141 7.984.264 11.963-.377 2.214-.356 4.333-1.022 6.45-1.698a48.266 48.266 0 0 0 13.394-6.68c1.409-1.001 2.652-2.19 3.9-3.372 2.312-2.19 4.416-4.588 6.618-6.886 3.596-3.754 6.614-7.904 9.301-12.333 2.154-3.548 4.462-7.001 6.661-10.523 1.482-2.375 2.638-4.897 3.854-7.397 1.307-2.684 2.65-5.356 3.545-8.22.12-.386.328-.733.618-1.036.27-.283.095-.585-.109-.808-.206-.225-.462-.112-.68.037-.677.464-1.22 1.07-1.707 1.717-1.064 1.419-2.17 2.795-3.566 3.909-1.775 1.416-3.762 2.341-6.017 2.684-1.9.288-3.69 1.06-5.623 1.237-3.12.287-6.23.577-9.367.213-2.166-.251-4.35-.222-6.519-.038-4.152.352-8.287.18-12.417-.274a11.439 11.439 0 0 0-3.916.24c-3.647.862-7.207 2.024-10.565 3.672-2.34 1.149-4.608 2.486-6.667 4.125-.713.567-1.547.953-2.233 1.57-.97.873-1.911 1.732-2.742 2.775-.96 1.206-2.272 2.156-3.514 3.108-4.094 3.135-8.226 6.223-12.345 9.327-1.973 1.488-3.933 2.994-5.934 4.444-.816.59-1.69 1.123-2.596 1.56a29.157 29.157 0 0 0-4.168 2.48c-.713.505-1.557.733-2.253 1.238-.27.195-.635.42-.476.844.125.338.492.296.969.397"/>
</svg>
