<svg xmlns="http://www.w3.org/2000/svg" width="28" height="60" viewBox="0 0 28 60">
    <path fill="#F7D34C" fill-rule="evenodd" d="M12.312 19.248h-.025c.094.861-.2 1.62-.657 2.32-.713 1.087-1.513 2.118-2.08 3.297-.724 1.503-1.083 3.048-.623 4.71.184.665.298 1.351.487 2.015.311 1.097.557 2.217.991 3.317.183-.193.13-.371.144-.525.147-1.594.581-3.088 1.42-4.47.46-.758.964-1.481 1.547-2.146a10.769 10.769 0 0 0 1.739-2.717c.144-.322.15-.696.484-1.132-.176.853-.322 1.544-.46 2.238-.154.778-.529 1.454-.976 2.093-.778 1.112-1.508 2.253-2.079 3.488-1.183 2.559-1.511 5.125-.061 7.705.094.167.14.36.22.537.409.92.814 1.843 1.525 2.815-.022-1.52.494-2.729 1.042-3.897 1.183-2.518 2.716-4.856 3.975-7.517-.007.892-.098 1.616-.416 2.292-.294.624-.613 1.24-.953 1.84-.874 1.548-1.601 3.159-2.058 4.879-.292 1.098-.497 2.212-.316 3.36.098.629.167 1.262.243 1.894.047.395.193.756.425 1.067.945 1.263 1.995 2.423 3.273 3.363.531.39 1.085.77 1.54 1.239 1.386 1.43 2.936 2.674 4.422 3.99.123.11.24.316.508.222-.022-.115-.028-.225-.064-.325-.615-1.696-1.032-3.446-1.141-5.242-.108-1.783-.645-3.499-.6-5.315.037-1.537-.28-3.081-.411-4.624-.126-1.487-.365-2.96-.348-4.463.031-2.775-.106-5.532-1.117-8.171-.727-1.897-1.523-3.734-3.047-5.167-.642-.603-1.197-1.299-1.765-1.98-1.1-1.318-1.982-2.797-3.111-4.092a28.462 28.462 0 0 1-3.366-4.814c-.682-1.218-1.044-2.56-1.58-3.833-.394-.935-.57-1.903-.593-2.91-.003-.143.094-.332-.133-.412-.303.211-.353.552-.454.864-.287.894-.527 1.805-.863 2.68-1.02 2.66-1.87 5.371-2.61 8.12-.647 2.4-1.531 4.738-1.824 7.232-.103.877-.18 1.767-.356 2.629-.322 1.582-.432 3.174-.513 4.78-.133 2.61.362 5.121 1.02 7.616.31 1.182.875 2.27 1.33 3.396.348.862.73 1.724 1.239 2.523 1.048 1.643 2.348 3.072 3.674 4.48.723.768 1.479 1.536 2.452 1.957 2.256.975 4.614 1.665 7.008 2.22.442.103.9.133 1.538.223a16.948 16.948 0 0 0-1.967-1.935c-1.19-.995-2.364-2.013-3.291-3.27-.515-.698-1.084-1.317-1.832-1.773-.4-.245-.725-.594-1.05-.939-.93-.986-1.888-1.947-2.94-2.808-1.645-1.348-3.005-2.926-3.938-4.852-.182-.378-.446-.723-.527-1.315 1.153 1.428 2.017 2.891 3.27 4.03 1.247 1.132 2.775 1.867 4.064 2.961.165-.276.032-.412-.03-.552-.425-.961-.872-1.913-1.283-2.88a4.388 4.388 0 0 0-.912-1.375c-.626-.637-1.126-1.363-1.606-2.109-.956-1.49-1.888-2.997-2.893-4.453a26.61 26.61 0 0 1-1.693-2.852c-.15-.288-.313-.578-.262-.952 1.71 2.41 3.638 4.625 5.687 6.732.105-.071.104-.165.065-.234-.412-.725-.413-1.518-.396-2.315.002-.109-.039-.218-.05-.328-.191-1.81-1.047-3.347-1.985-4.85-.673-1.077-1.364-2.144-2.044-3.219-.075-.118-.243-.232-.019-.454.822 1.234 2.097 2.032 2.882 3.293.16-.188.091-.354.065-.509-.139-.819-.265-1.64-.434-2.454-.848-4.094-.814-8.191-.063-12.296.342-1.865.983-3.66 1.272-5.74.244.545.488.957.297 1.314-.401.748-.317 1.562-.473 2.34-.493 2.45-.59 4.943-.785 7.424-.144 1.834.084 3.652.3 5.465.143 1.198.364 2.385.694 3.617.196-.22.263-.422.349-.627.287-.687.587-1.368.971-2.013.813-1.366 2.004-2.432 2.911-3.721M26.5 59.14c-.232-.287-.547-.638-.816-1.022-.902-1.284-2.041-2.323-3.305-3.232a4.358 4.358 0 0 0-1.502-.676 54.555 54.555 0 0 0-4.044-.887c-2.17-.377-4.203-1.145-6.165-2.14-1.09-.551-1.961-1.353-2.755-2.234-1.46-1.62-2.915-3.25-4.045-5.14-.628-1.053-1.094-2.174-1.555-3.298a26.38 26.38 0 0 1-1.909-7.955c-.075-.942-.014-1.88.042-2.817.105-1.738.37-3.461.558-5.19.309-2.825.986-5.547 1.896-8.228.73-2.148 1.364-4.328 2.066-6.486C5.44 8.38 6.09 7.01 6.71 5.623 7.374 4.133 8.02 2.63 8.905 1.25c.12-.186.192-.394.217-.622.024-.213.211-.246.377-.239.166.008.209.154.223.298.044.447-.019.887-.12 1.318-.219.944-.407 1.89-.383 2.867.03 1.24.342 2.398.99 3.462.547.897.853 1.917 1.458 2.789.976 1.407 1.947 2.81 3.202 3.997.866.818 1.62 1.742 2.306 2.716 1.311 1.862 2.836 3.533 4.477 5.102.526.503.95 1.077 1.275 1.724.92 1.83 1.685 3.729 2.174 5.714.342 1.383.578 2.803.616 4.24.013.498.144.983.127 1.487-.025.713-.054 1.409-.199 2.123-.167.826-.104 1.709-.066 2.563.125 2.816.284 5.63.431 8.446.07 1.349.129 2.699.225 4.046.04.549.123 1.102.259 1.635.219.862.352 1.735.425 2.617.04.475.24.909.274 1.377.013.182.047.413-.187.496-.185.067-.296-.102-.506-.266"/>
</svg>
