<svg xmlns="http://www.w3.org/2000/svg" width="49" height="53" viewBox="0 0 49 53">
    <g fill="none" fill-rule="evenodd">
        <circle cx="33" cy="37" r="16" fill="#F9BFB5"/>
        <circle cx="27" cy="4" r="4" fill="#F9BFB5"/>
        <path fill="#FFF" d="M39.492 38.908c-.773 3.487-3.269 6.194-6.365 7.932-2.063-1.599-2.08-5.733-1.087-8.298l2.528-6.522c.152-.383.303-.789.447-1.204 2.941 1.678 5.248 4.616 4.477 8.092m-12.996-7.322c-.025-2.054.56-4.084 1.18-6.234.236-.82.464-1.663.671-2.512.65.12 1.27.505 1.73.871 1.655 1.314 2.71 3.394 2.706 4.248-.003.962-.399 1.97-.819 3.035l-2.535 6.537c-.125.318-.23.66-.329 1.012-1.53-1.667-2.58-4.94-2.604-6.957m-2.034-5.14c-.866-1.376-1.67-3.47-2.257-5.942-.372-1.566-.642-3.21-.898-4.817.347.29.681.586 1 .895.415.402.858.784 1.295 1.161 1.75 1.508 2.492 2.29 2.256 3.464-.22 1.106-.538 2.206-.873 3.37a83.287 83.287 0 0 0-.523 1.868m11.12 1.506c-.003-1.936-1.653-4.757-3.765-6.434-1.047-.83-2.123-1.322-3.18-1.469-.328-1.938-1.89-3.292-3.208-4.426-.395-.34-.797-.686-1.172-1.05-.835-.81-1.74-1.519-2.616-2.206-.287-.225-.573-.449-.858-.679-.1-.08-.197-.173-.293-.26l-3.299-2.905.747 3.984c.2 1.064.37 2.14.54 3.215.283 1.785.576 3.63 1.002 5.43.552 2.32 1.812 6.52 4.055 8.56.077.07.161.13.248.18-.062.57-.094 1.144-.087 1.728.037 3.1 1.806 8.29 4.923 10.092-.072 2.296.437 4.672 1.79 6.354-1.813.636-3.708.978-5.515.978h-.049a21.973 21.973 0 0 1-15.619-6.53C5.063 38.32 2.801 32.758 2.801 26.85c0-12.899 6.464-19.328 5.876-18.824A24.916 24.916 0 0 0 0 26.842c-.022 6.656 2.55 12.921 7.24 17.643 4.69 4.723 10.94 7.335 17.595 7.358h.06c2.927 0 6.085-.747 8.914-2.176.012-.007.025-.01.037-.019 4.003-2.03 7.34-5.443 8.38-10.135 1.161-5.232-2.392-9.47-6.644-11.562"/>
    </g>
</svg>
