<svg xmlns="http://www.w3.org/2000/svg" width="28" height="28" viewBox="0 0 28 28">
    <path fill="#8B286E" fill-rule="evenodd" d="M2 0h24a2 2 0 0 1 2 2v24a2 2 0 0 1-2 2H2a2 2 0 0 1-2-2V2a2 2 0 0 1 2-2zm4.682 10.364v8.314a.957.957 0 0 1-.255.825L4.451 21.9v.316h5.603V21.9l-1.976-2.397a.992.992 0 0 1-.272-.825v-7.19l4.918 10.728h.57l4.224-10.728v8.55c0 .23 0 .273-.149.422l-1.52 1.475v.316h7.377v-.316l-1.466-1.44a.439.439 0 0 1-.167-.42V9.494a.439.439 0 0 1 .167-.421l1.502-1.44v-.316h-5.2l-3.705 9.244-4.215-9.244H4.688v.316L6.445 9.75c.172.155.26.383.237.614z"/>
</svg>
