<svg xmlns="http://www.w3.org/2000/svg" width="71" height="96" viewBox="0 0 71 96">
    <path fill="#F7D34C" fill-rule="evenodd" d="M47.251 27.19l-.03-.034c-1.098 1.143-2.505 1.624-4.024 1.805-2.362.281-4.748.372-7.068.963-2.957.753-5.546 2.067-7.333 4.666-.717 1.04-1.544 2.007-2.253 3.053-1.171 1.727-2.45 3.387-3.482 5.29.486.03.672-.254.905-.416 2.407-1.669 5.012-2.817 7.933-3.266 1.606-.247 3.211-.39 4.828-.356a19.703 19.703 0 0 0 5.853-.758c.621-.176 1.151-.609 2.156-.653-1.401.757-2.542 1.366-3.676 1.988-1.272.698-2.661.969-4.082 1.093-2.475.217-4.932.536-7.334 1.188-4.977 1.35-8.96 3.91-10.87 8.976-.124.328-.34.621-.496.94-.807 1.655-1.624 3.308-2.15 5.448 2.104-1.82 4.405-2.517 6.687-3.122 4.92-1.304 10-1.905 15.21-3.27-1.258 1.038-2.38 1.763-3.701 2.113a51.239 51.239 0 0 1-3.7.828c-3.198.595-6.31 1.47-9.258 2.852-1.883.883-3.685 1.906-5.083 3.51-.764.877-1.57 1.718-2.367 2.568a4.029 4.029 0 0 0-.996 1.852c-.659 2.807-1.05 5.643-.864 8.541.077 1.203.198 2.425.075 3.615-.373 3.624-.296 7.26-.393 10.89-.008.303-.16.708.287.973.135-.166.282-.304.38-.472 1.655-2.856 3.615-5.499 6.006-7.765 2.37-2.247 4.144-5.018 6.742-7.091 2.199-1.755 3.99-4.016 5.999-6.014 1.936-1.924 3.72-3.992 5.846-5.736 3.925-3.219 7.628-6.655 10.138-11.175 1.803-3.25 3.442-6.525 3.658-10.348.09-1.607.412-3.204.7-4.8.554-3.092 1.588-6.069 2.076-9.174.558-3.556 1.513-7.008 2.79-10.379.904-2.387 2.358-4.474 3.512-6.723.847-1.65 1.996-3.037 3.38-4.251.197-.174.578-.26.422-.673-.652-.176-1.188.154-1.744.38-1.59.65-3.15 1.385-4.772 1.943-4.927 1.698-9.728 3.695-14.45 5.89-4.125 1.917-8.44 3.427-12.28 5.95-1.35.888-2.689 1.824-4.103 2.592-2.597 1.41-4.957 3.128-7.304 4.903-3.813 2.883-6.75 6.53-9.475 10.386-1.29 1.826-2.15 3.896-3.194 5.857-.8 1.503-1.559 3.05-2.08 4.705-1.07 3.401-1.544 6.903-1.958 10.42-.225 1.914-.414 3.877.141 5.735 1.287 4.31 3.092 8.426 5.13 12.435.375.74.872 1.418 1.496 2.417.3-1.925.4-3.471.398-5.033-.003-2.838.043-5.68.713-8.457.373-1.544.572-3.068.331-4.654-.128-.849-.02-1.714.081-2.575.288-2.465.509-4.937.479-7.423-.047-3.891.566-7.653 2.17-11.226.314-.7.487-1.475 1.223-2.285-.646 3.296-1.682 6.227-1.803 9.321-.12 3.081.646 6.087.628 9.18.58-.094.616-.44.74-.69.846-1.728 1.655-3.474 2.527-5.187a8.028 8.028 0 0 0 .854-2.894c.157-1.626.586-3.182 1.068-4.731.962-3.093 1.98-6.172 2.839-9.293.539-1.962 1.23-3.855 2.005-5.726.227-.55.441-1.119 1.027-1.487-1.368 5.232-2.204 10.538-2.748 15.888.225.063.355-.049.405-.184.532-1.43 1.641-2.364 2.779-3.28.155-.123.26-.308.4-.454 2.312-2.396 3.46-5.404 4.463-8.485.72-2.211 1.401-4.435 2.108-6.65.077-.244.04-.616.615-.562-.764 2.604-.381 5.329-1.227 7.911.453.005.604-.287.79-.506.984-1.158 1.988-2.301 2.93-3.494 4.74-6.005 10.522-10.775 17.16-14.55 3.015-1.714 6.284-2.926 9.54-4.969-.477.985-.767 1.81-1.493 1.962-1.52.318-2.562 1.394-3.836 2.09-4.013 2.191-7.62 4.987-11.328 7.631-2.74 1.955-5.019 4.413-7.307 6.848a46.651 46.651 0 0 0-4.253 5.226c.54.014.9-.127 1.29-.249 1.3-.405 2.607-.784 3.962-1.005 2.871-.469 5.766-.052 8.64-.297M8.025 93.99c.13-.662.251-1.517.472-2.346.74-2.774.856-5.593.644-8.434-.076-1.011-.368-1.967-.82-2.899-1.1-2.275-2.241-4.523-3.512-6.71-2.023-3.485-3.337-7.239-4.252-11.158C.05 60.267.15 58.103.45 55.955c.554-3.954 1.127-7.908 2.449-11.715.735-2.119 1.76-4.09 2.792-6.058a48.266 48.266 0 0 1 8.905-12.03c1.23-1.213 2.617-2.232 3.997-3.254 2.56-1.898 5.285-3.553 7.932-5.323 4.32-2.89 8.932-5.14 13.76-7.018 3.868-1.505 7.67-3.179 11.52-4.733 2.596-1.047 5.28-1.747 7.953-2.51 2.871-.821 5.735-1.68 8.712-2.064A2.614 2.614 0 0 0 69.595.82c.326-.217.593.008.778.248.185.242.03.474-.155.663-.574.586-1.265 1.016-1.987 1.383-1.582.802-3.129 1.652-4.469 2.833-1.702 1.502-2.96 3.299-3.688 5.46-.614 1.82-1.684 3.449-2.195 5.322-.824 3.023-1.65 6.035-1.836 9.188-.129 2.176-.536 4.322-1.094 6.426-1.068 4.028-1.617 8.13-1.887 12.277a11.439 11.439 0 0 1-.916 3.815c-1.483 3.441-3.245 6.745-5.451 9.766-1.538 2.106-3.249 4.106-5.22 5.85-.682.604-1.207 1.357-1.934 1.926-1.028.803-2.037 1.581-3.21 2.219-1.354.736-2.517 1.862-3.67 2.92-3.799 3.488-7.557 7.02-11.33 10.538-1.807 1.685-3.63 3.354-5.406 5.073-.723.7-1.399 1.468-1.986 2.285a29.157 29.157 0 0 1-3.168 3.674c-.62.614-.992 1.406-1.61 2.004-.239.231-.523.552-.914.322-.31-.182-.205-.536-.222-1.023"/>
</svg>
