<svg xmlns="http://www.w3.org/2000/svg" width="56" height="33" viewBox="0 0 56 33">
    <path fill="#F7D34C" fill-rule="evenodd" d="M37.707 10.755l-.005-.025c-.832.242-1.63.085-2.398-.245-1.195-.512-2.35-1.121-3.609-1.476-1.605-.451-3.19-.537-4.746.205-.624.297-1.28.528-1.9.83-1.027.497-2.087.933-3.095 1.552.222.147.388.063.542.05 1.596-.132 3.143.036 4.648.622.828.322 1.627.693 2.383 1.151.932.565 1.922.976 2.977 1.241.342.086.711.026 1.2.28-.87-.025-1.577-.048-2.284-.064-.793-.017-1.525-.268-2.231-.597-1.23-.574-2.481-1.095-3.796-1.442-2.725-.721-5.31-.599-7.599 1.277-.148.122-.33.201-.49.31-.835.563-1.674 1.122-2.508 1.991 1.494-.286 2.773.012 4.019.35 2.685.727 5.253 1.83 8.093 2.608-.88.148-1.609.185-2.33-.01a28.006 28.006 0 0 1-1.977-.62c-1.676-.592-3.389-1.029-5.162-1.18-1.132-.097-2.264-.105-3.365.272-.601.207-1.213.384-1.822.569-.381.115-.71.32-.977.604-1.08 1.15-2.04 2.385-2.744 3.807-.292.59-.569 1.202-.952 1.732-1.167 1.613-2.124 3.355-3.162 5.047-.087.141-.27.292-.13.54.11-.042.217-.068.308-.12 1.564-.9 3.215-1.615 4.965-2.035 1.737-.415 3.333-1.242 5.13-1.514 1.52-.23 2.985-.81 4.483-1.207 1.442-.382 2.851-.873 4.334-1.117 2.738-.451 5.43-1.066 7.853-2.52 1.742-1.045 3.413-2.147 4.56-3.898.482-.736 1.07-1.404 1.643-2.081 1.107-1.312 2.41-2.438 3.49-3.775a28.462 28.462 0 0 1 4.156-4.15c1.08-.883 2.34-1.473 3.5-2.222.853-.55 1.775-.892 2.762-1.09.14-.027.344.036.384-.202-.26-.262-.605-.252-.93-.297-.93-.127-1.87-.206-2.79-.384-2.796-.543-5.614-.91-8.45-1.162-2.475-.22-4.93-.684-7.438-.539-.882.051-1.77.129-2.65.106-1.615-.043-3.202.125-4.798.324-2.592.323-4.98 1.247-7.322 2.327-1.11.512-2.083 1.257-3.113 1.9-.79.492-1.572 1.018-2.27 1.658-1.437 1.318-2.618 2.846-3.775 4.397-.63.845-1.255 1.722-1.5 2.754-.57 2.392-.84 4.833-.97 7.288-.025.452.025.909.047 1.552a16.948 16.948 0 0 0 1.564-2.273c.774-1.344 1.573-2.677 2.649-3.809.598-.628 1.109-1.295 1.428-2.112.171-.437.46-.817.742-1.196.81-1.088 1.59-2.198 2.255-3.383 1.042-1.855 2.36-3.468 4.095-4.72.34-.246.634-.566 1.204-.748-1.207 1.383-2.498 2.487-3.4 3.92-.9 1.425-1.358 3.057-2.212 4.516.3.114.411-.04.538-.125.873-.586 1.733-1.191 2.614-1.764a4.388 4.388 0 0 0 1.195-1.137c.52-.727 1.147-1.346 1.799-1.947 1.3-1.201 2.624-2.38 3.883-3.623a26.611 26.611 0 0 1 2.514-2.163c.258-.197.515-.408.893-.423-2.078 2.103-3.924 4.386-5.643 6.77.089.091.181.074.242.023.642-.531 1.423-.67 2.211-.792.108-.017.208-.076.314-.106 1.749-.503 3.115-1.613 4.431-2.797.945-.85 1.876-1.716 2.816-2.572.103-.094.187-.28.444-.097-1.073 1.023-1.637 2.417-2.742 3.409.212.126.364.029.512-.024.782-.279 1.57-.546 2.341-.853 3.885-1.547 7.926-2.225 12.099-2.197 1.896.012 3.774.332 5.874.255-.495.336-.858.647-1.243.52-.806-.265-1.593-.04-2.387-.059-2.498-.06-4.97.278-7.448.517-1.83.176-3.58.717-5.33 1.244a25.498 25.498 0 0 0-3.44 1.312c.25.154.46.185.677.234.727.164 1.45.341 2.151.607 1.487.563 2.743 1.551 4.17 2.22M.885 31.655c.243-.278.534-.65.865-.981 1.108-1.111 1.933-2.414 2.609-3.816.24-.5.364-1.032.405-1.596.1-1.378.175-2.754.17-4.137-.005-2.202.4-4.338 1.038-6.443.354-1.17.992-2.166 1.721-3.1 1.343-1.721 2.695-3.436 4.36-4.877.928-.802 1.952-1.455 2.978-2.104a26.38 26.38 0 0 1 7.503-3.261c.914-.238 1.849-.34 2.781-.448 1.73-.199 3.473-.237 5.21-.352 2.834-.187 5.632.008 8.43.439 2.243.344 4.5.591 6.747.908 1.515.213 2.977.616 4.45.985 1.584.396 3.174.772 4.688 1.404.204.085.422.12.65.105.214-.014.28.165.3.33.022.164-.114.232-.253.27-.433.121-.877.136-1.319.112-.968-.052-1.933-.073-2.89.12-1.216.246-2.302.753-3.237 1.577-.789.694-1.74 1.172-2.494 1.92-1.216 1.205-2.43 2.405-3.38 3.846-.656.995-1.435 1.9-2.274 2.743-1.606 1.615-2.988 3.407-4.248 5.296a6.252 6.252 0 0 1-1.477 1.555c-1.642 1.224-3.379 2.306-5.248 3.133-1.304.577-2.66 1.056-4.07 1.343-.488.099-.943.312-1.442.383-.706.1-1.396.191-2.125.173-.842-.022-1.7.194-2.536.38-2.751.612-5.496 1.257-8.242 1.89-1.316.305-2.636.596-3.946.925a9.362 9.362 0 0 0-1.565.539c-.81.365-1.648.648-2.503.873-.461.121-.854.394-1.31.508-.176.045-.398.119-.52-.097-.098-.17.049-.31.174-.545"/>
</svg>
