<?xml version="1.0" encoding="UTF-8"?>
<svg width="43px" height="575px" viewBox="0 0 43 575" version="1.1" xmlns="http://www.w3.org/2000/svg" xmlns:xlink="http://www.w3.org/1999/xlink">
    <!-- Generator: Sketch 42 (36781) - http://www.bohemiancoding.com/sketch -->
    <title>sprite</title>
    <desc>Created with Sketch.</desc>
    <defs></defs>
    <g id="Under-Construction" stroke="none" stroke-width="1" fill="none" fill-rule="evenodd">
        <g id="sprite">
            <g id="Instagram" transform="translate(0.000000, 68.000000)" fill="#8B286E">
                <path d="M19.00095,8.86666667 C16.2488769,8.86666667 15.9034955,8.87870013 14.8225954,8.92788953 C13.7438064,8.97729004 13.0074431,9.14808071 12.3631253,9.39867221 C11.6966406,9.65749713 11.1312791,10.003723 10.5680288,10.5671844 C10.0043563,11.1304347 9.65813047,11.6957961 9.3984611,12.3620697 C9.14723626,13.0065987 8.97623447,13.743173 8.92767841,14.8215398 C8.87933347,15.90244 8.86666667,16.2480324 8.86666667,19.0001056 C8.86666667,21.7521787 8.87891124,22.0965045 8.92788953,23.1774046 C8.97750115,24.2561936 9.14829182,24.9925569 9.39867221,25.6368747 C9.65770824,26.3033594 10.0039341,26.8687209 10.5673955,27.4319712 C11.1304347,27.9956437 11.6957961,28.342714 12.3618586,28.6015389 C13.0065987,28.8521304 13.743173,29.0229211 14.8217509,29.0723216 C15.9026511,29.121511 16.2478213,29.1335444 18.9996833,29.1335444 C21.7519676,29.1335444 22.0962934,29.121511 23.1771935,29.0723216 C24.2559825,29.0229211 24.9931902,28.8521304 25.6379303,28.6015389 C26.3042039,28.342714 26.8687209,27.9956437 27.4317601,27.4319712 C27.9954326,26.8687209 28.3416584,26.3033594 28.6013278,25.6370858 C28.8504415,24.9925569 29.0214433,24.2559825 29.0721105,23.1776157 C29.1206665,22.0967156 29.1333333,21.7521787 29.1333333,19.0001056 C29.1333333,16.2480324 29.1206665,15.9026511 29.0721105,14.8217509 C29.0214433,13.7429619 28.8504415,13.0065987 28.6013278,12.3622809 C28.3416584,11.6957961 27.9954326,11.1304347 27.4317601,10.5671844 C26.8680875,10.0035118 26.304415,9.65728601 25.6372969,9.39867221 C24.9912902,9.14808071 24.2545047,8.97729004 23.1757157,8.92788953 C22.0948156,8.87870013 21.7507009,8.86666667 18.9977833,8.86666667 L19.00095,8.86666667 Z M18.0918961,10.6927968 C18.3616989,10.6923746 18.6627465,10.6927968 19.00095,10.6927968 C21.7065782,10.6927968 22.0272593,10.702508 23.0957038,10.7510641 C24.0837141,10.7962423 24.6199419,10.9613329 24.9771456,11.1000344 C25.4500394,11.283703 25.7871874,11.5032608 26.1416466,11.8579312 C26.496317,12.2126015 26.7158748,12.5503828 26.8999656,13.0232766 C27.0386671,13.3800581 27.2039688,13.9162859 27.2489359,14.9042962 C27.297492,15.9725296 27.3080477,16.2934218 27.3080477,18.9977833 C27.3080477,21.7021448 27.297492,22.023037 27.2489359,23.0912704 C27.2037577,24.0792807 27.0386671,24.6155085 26.8999656,24.97229 C26.716297,25.4451838 26.496317,25.7819095 26.1416466,26.1363688 C25.7869763,26.4910391 25.4502505,26.710597 24.9771456,26.8942656 C24.6203641,27.0336004 24.0837141,27.1982687 23.0957038,27.243447 C22.0274704,27.292003 21.7065782,27.3025587 19.00095,27.3025587 C16.2951107,27.3025587 15.9744296,27.292003 14.9061962,27.243447 C13.918186,27.1978465 13.3819581,27.0327559 13.0245433,26.8940545 C12.5516495,26.7103859 12.2138682,26.490828 11.8591978,26.1361577 C11.5045275,25.7814873 11.2849696,25.4445505 11.1008788,24.9714455 C10.9621774,24.614664 10.7968757,24.0784362 10.7519085,23.0904259 C10.7033525,22.0221926 10.6936413,21.7013004 10.6936413,18.99525 C10.6936413,16.2891995 10.7033525,15.9699962 10.7519085,14.9017629 C10.7970868,13.9137526 10.9621774,13.3775248 11.1008788,13.020321 C11.2845474,12.5474272 11.5045275,12.2096459 11.8591978,11.8549756 C12.2138682,11.5003052 12.5516495,11.2807474 13.0245433,11.0966566 C13.381747,10.9573218 13.918186,10.7926534 14.9061962,10.747264 C15.841006,10.7050414 16.2032764,10.6923746 18.0918961,10.6902634 L18.0918961,10.6927968 Z M24.4100952,12.3753699 C23.7387549,12.3753699 23.1940826,12.9194089 23.1940826,13.5909603 C23.1940826,14.2623006 23.7387549,14.806973 24.4100952,14.806973 C25.0814356,14.806973 25.6261079,14.2623006 25.6261079,13.5909603 C25.6261079,12.91962 25.0814356,12.3749477 24.4100952,12.3749477 L24.4100952,12.3753699 Z M19.00095,13.7961625 C16.1270645,13.7961625 13.7970069,16.1262201 13.7970069,19.0001056 C13.7970069,21.873991 16.1270645,24.2029931 19.00095,24.2029931 C21.8748355,24.2029931 24.2040487,21.873991 24.2040487,19.0001056 C24.2040487,16.1262201 21.8746244,13.7961625 19.0007389,13.7961625 L19.00095,13.7961625 Z M19.00095,15.6222926 C20.8663472,15.6222926 22.378763,17.1344972 22.378763,19.0001056 C22.378763,20.8655028 20.8663472,22.3779185 19.00095,22.3779185 C17.1353417,22.3779185 15.623137,20.8655028 15.623137,19.0001056 C15.623137,17.1344972 17.1353417,15.6222926 19.00095,15.6222926 L19.00095,15.6222926 Z" id="Shape"></path>
            </g>
            <g id="Twitter" transform="translate(0.000000, 137.000000)" fill="#8B286E">
                <path d="M18.4309521,15.443438 L18.4708224,16.1008809 L17.806317,16.0203777 C15.3875175,15.711782 13.2743905,14.6652403 11.480226,12.9075869 L10.6030789,12.0354689 L10.3771471,12.6794945 C9.89870322,14.1151351 10.2043757,15.6312788 11.2011337,16.6509861 C11.732738,17.2145086 11.6131271,17.2950118 10.6961097,16.9595817 C10.3771471,16.8522441 10.0980548,16.7717409 10.0714746,16.8119925 C9.97844386,16.9059129 10.2974064,18.1268783 10.5499185,18.6098975 C10.8954613,19.2807576 11.5998369,19.9382004 12.3706632,20.3272993 L13.0218784,20.6358949 L12.2510522,20.6493121 C11.5068062,20.6493121 11.480226,20.6627293 11.5599666,20.9444905 C11.8257688,21.8166086 12.8756872,22.7423955 14.0452167,23.1449116 L14.8692033,23.4266728 L14.1515375,23.8560232 C13.088329,24.4732145 11.8390589,24.8220617 10.5897888,24.8488961 C9.99173397,24.8623133 9.5,24.9159821 9.5,24.9562337 C9.5,25.0904057 11.1213931,25.841769 12.0649907,26.1369474 C14.8957835,27.0090655 18.2581807,26.6333839 20.7833011,25.1440746 C22.5774655,24.0841156 24.37163,21.977615 25.2089068,19.9382004 C25.6607704,18.8514071 26.1126341,16.8656613 26.1126341,15.91304 C26.1126341,15.2958488 26.1525044,15.2153456 26.8967504,14.4773995 C27.3353239,14.0480491 27.7473173,13.578447 27.8270579,13.444275 C27.959959,13.1893482 27.9466689,13.1893482 27.2688734,13.4174406 C26.1392143,13.8199566 25.979733,13.7662878 26.5379175,13.1625138 C26.9499108,12.7331633 27.4416448,11.9549657 27.4416448,11.7268732 C27.4416448,11.6866216 27.2422932,11.7537076 27.0163614,11.8744624 C26.7771394,12.0086345 26.2455351,12.2098925 25.8468319,12.3306473 L25.1291661,12.5587397 L24.4779509,12.1159721 C24.119118,11.8744624 23.6140939,11.6061184 23.3482918,11.5256152 C22.6704963,11.3377744 21.6338679,11.3646088 21.022523,11.579284 C19.3612596,12.1830581 18.3113411,13.7394534 18.4309521,15.443438 Z" id="Shape"></path>
            </g>
            <g id="Medium" transform="translate(0.000000, 205.000000)">
                <g id="Group" transform="translate(10.000000, 11.000000)">
                    <path d="M12.8420243,0.0187546962 C12.7455547,-0.0298278114 12.6666667,0.0192813358 12.6666667,0.127900763 L12.6666667,13.4858521 L18.473927,16.4104138 C18.7632704,16.5561613 19,16.408768 19,16.0829097 L19,3.22447607 C19,3.16042352 18.9640527,3.10183486 18.9071905,3.07319883 L12.8420243,0.0187546962" id="Fill-6" fill="#C892B7"></path>
                    <path d="M6.33333333,10.1551059 L12.5937885,0.100090419 C12.6505948,0.00889361607 12.7763569,-0.0265465648 12.8732889,0.0213560973 L18.9206381,3.00988505 C18.995964,3.04707777 19.0228239,3.14015693 18.9786922,3.21103729 L12.697025,13.3 L6.33333333,10.1551059" id="Fill-7" fill="#8D607F"></path>
                    <path d="M0.411105323,0.0866644894 C0.015930916,-0.107763599 -0.117958431,0.0361303167 0.113603194,0.40647267 L6.17966088,10.107782 L12.6666667,13.3 L6.22156824,2.99241236 C6.19418787,2.94853262 6.1548244,2.91315212 6.10809702,2.89009219 L0.411105323,0.0866644894" id="Fill-9" fill="#5F3E55"></path>
                    <path d="M6.33333333,16.0812824 C6.33333333,16.4085225 6.09654084,16.5565408 5.8072004,16.4101752 L0.350777074,13.6505823 C0.157839879,13.5530053 0,13.2947169 0,13.0765568 L0,0.256941161 C0,0.0387810725 0.157839879,-0.0599198403 0.350777074,0.0376572175 L6.25523037,3.02387218 C6.30307252,3.04806811 6.33333333,3.09751773 6.33333333,3.1516611 L6.33333333,16.0812824" id="Fill-10" fill="#32212D"></path>
                </g>
            </g>
            <g id="Dribbble" fill="#8B286E">
                <path d="M29.1333333,18.9859519 C29.1333333,19.6712486 29.0635663,20.3555947 28.926531,21.0226728 C28.7929067,21.6739087 28.5949889,22.3132628 28.3357126,22.9244573 C28.0823857,23.5248395 27.7681763,24.1033989 27.4010169,24.6429468 C27.039331,25.1790886 26.6226723,25.6820804 26.1649625,26.1405952 C25.7062612,26.5971296 25.2015509,27.0126325 24.6656656,27.375856 C24.1243464,27.7404657 23.5449509,28.0542217 22.9442168,28.3087277 C22.332139,28.5666397 21.6913057,28.764272 21.0406359,28.8976638 C20.3726732,29.0350558 19.6858309,29.1051975 18.9995439,29.1051975 C18.3127412,29.1051975 17.6259386,29.0350558 16.9589278,28.8976638 C16.3072665,28.764272 15.6664728,28.5666397 15.054871,28.3087277 C14.4541765,28.0542217 13.8742257,27.7404657 13.3329066,27.375856 C12.7970212,27.0126721 12.2923109,26.5971296 11.8346012,26.1405952 C11.3764155,25.6820804 10.9597568,25.1790886 10.5975553,24.6429468 C10.232379,24.1033989 9.91765397,23.5247999 9.66333551,22.9244573 C9.40401952,22.3132628 9.20562574,21.6738691 9.0715255,21.0226728 C8.93595774,20.3555947 8.86666667,19.6712486 8.86666667,18.9859519 C8.86666667,18.3001403 8.93591808,17.6143287 9.07156516,16.948716 C9.2056654,16.2974802 9.40405918,15.6571359 9.66337517,15.0469316 C9.91769363,14.4461137 10.2324187,13.8670394 10.5975949,13.3274519 C10.9597964,12.7908745 11.3764551,12.2888331 11.8346408,11.8298036 C12.2923506,11.3732295 12.7970609,10.9587167 13.3329462,10.5960477 C13.8742654,10.2298934 14.4542162,9.916177 15.0549107,9.66119577 C15.6665125,9.40272925 16.3072665,9.20462175 16.9589674,9.07222003 C17.6259783,8.93585775 18.3127809,8.86666667 18.9995835,8.86666667 C19.6858706,8.86666667 20.3726732,8.93585775 21.0406756,9.07222003 C21.6913453,9.20466135 22.332139,9.40276885 22.9442564,9.66119577 C23.5449509,9.91613739 24.1243861,10.2298934 24.6657052,10.5960477 C25.2015906,10.9587167 25.7063405,11.3732295 26.1650022,11.8298036 C26.622712,12.2888331 27.0393706,12.7908745 27.4010565,13.3274519 C27.7681763,13.8670394 28.0823857,14.4461533 28.3357126,15.0469316 C28.5949889,15.6571359 28.7929067,16.2974802 28.926531,16.948716 C29.0635663,17.6143287 29.1333333,18.3001403 29.1333333,18.9859519 Z M15.3072063,11.1696961 C12.8939573,12.3076458 11.0928258,14.528137 10.5311992,17.2042121 C10.7593402,17.2061924 14.3655696,17.2516597 18.5205351,16.1492758 C17.0227454,13.4919738 15.4225063,11.3234056 15.3072063,11.1696961 Z M19.2375212,17.4799467 C14.7817127,18.8120038 10.5059736,18.7161581 10.3525972,18.7102569 C10.3500985,18.8031322 10.3456562,18.893037 10.3456562,18.9859519 C10.3456562,21.2059282 11.1843677,23.2297773 12.5629309,24.7600607 C12.5599561,24.7555853 14.9281877,20.560158 19.5982552,19.0521725 C19.7110565,19.0146264 19.8258806,18.9810012 19.9396734,18.9484057 C19.7224794,18.4572955 19.4854143,17.9651556 19.2375212,17.4799467 Z M24.7146889,12.5003274 C23.1911183,11.1588045 21.1906013,10.3450667 18.9995439,10.3450667 C18.2964001,10.3450667 17.6140398,10.4300604 16.9603953,10.5871761 C17.0900136,10.7611241 18.7155179,12.9144045 20.195499,15.6279862 C23.4608259,14.4055971 24.6933899,12.5319327 24.7146889,12.5003274 Z M20.5295003,20.3803087 C20.5102241,20.3866852 20.4909479,20.3921904 20.4721081,20.3990817 C15.3661727,22.1765182 13.6987603,25.7585626 13.6807197,25.7976651 C15.1498636,26.9385303 16.9925619,27.6268371 18.9995439,27.6268371 C20.1979581,27.6268371 21.3394958,27.3831831 22.3781083,26.9420156 C22.2499575,26.187013 21.7472303,23.5406025 20.5295003,20.3803087 Z M23.8354023,26.1524372 C25.778527,24.8430742 27.1585576,22.763896 27.5435257,20.3555551 C27.3653996,20.2982457 24.9442577,19.5328664 22.1509986,19.9800539 C23.2861109,23.0949201 23.747311,25.6316624 23.8354023,26.1524372 Z M20.861558,16.9156453 C21.0624109,17.3277422 21.2569177,17.7471661 21.4365113,18.1686891 C21.5003685,18.3199035 21.5627186,18.4681475 21.6235615,18.6163519 C24.5964142,18.2427913 27.5252411,18.8712935 27.6504568,18.896958 C27.630665,16.8484345 26.8968222,14.9683539 25.6825824,13.4964493 C25.6662413,13.5196186 24.2782781,15.5222391 20.861558,16.9156453 Z" id="Path"></path>
            </g>
            <text id="✨" font-family="AppleColorEmoji, Apple Color Emoji" font-size="32" font-weight="normal" line-spacing="36" letter-spacing="0.547008276" fill="#1D1C1E">
                <tspan x="0" y="305">✨</tspan>
            </text>
            <text id="💖" font-family="AppleColorEmoji, Apple Color Emoji" font-size="18" font-weight="normal" line-spacing="30" letter-spacing="0.24999994" fill="#1D1C1E">
                <tspan x="0" y="420">💖</tspan>
            </text>
            <text id="💫" font-family="Lato-Bold, Lato" font-size="18" font-weight="bold" line-spacing="30" letter-spacing="0.24999994" fill="#1D1C1E">
                <tspan x="0" y="357"> </tspan>
                <tspan x="3.72399994" y="357" font-family="AppleColorEmoji, Apple Color Emoji" font-weight="normal">💫</tspan>
            </text>
            <text id="🌿" font-family="AppleColorEmoji, Apple Color Emoji" font-size="18" font-weight="normal" line-spacing="30" letter-spacing="0.24999994" fill="#1D1C1E">
                <tspan x="0" y="480">🌿</tspan>
            </text>
            <text id="🔮" font-family="AppleColorEmoji, Apple Color Emoji" font-size="32" font-weight="normal" line-spacing="50" letter-spacing="0.444444299" fill="#1D1C1E">
                <tspan x="0" y="551">🔮</tspan>
            </text>
        </g>
    </g>
</svg>