<svg xmlns="http://www.w3.org/2000/svg" width="24" height="24" viewBox="0 0 24 24">
    <path fill="#8B286E" fill-rule="evenodd" d="M23.507 11.784a11.31 11.31 0 0 1-.89 4.395 11.385 11.385 0 0 1-4.095 4.967c-.604.407-1.25.757-1.921 1.04a11.355 11.355 0 0 1-8.803 0 11.43 11.43 0 0 1-1.921-1.04 11.395 11.395 0 0 1-3.052-3.05 11.281 11.281 0 0 1-1.703-4.04 11.428 11.428 0 0 1 0-4.545 11.226 11.226 0 0 1 1.703-4.04A11.4 11.4 0 0 1 4.205 3.8a11.356 11.356 0 0 1 3.593-2.42 11.394 11.394 0 0 1 8.803 0 11.347 11.347 0 0 1 4.973 4.09 11.188 11.188 0 0 1 1.702 4.04 11.3 11.3 0 0 1 .23 2.274zM8.08 3.063a9.657 9.657 0 0 0-5.33 6.733c.255.002 4.279.053 8.915-1.177A58.056 58.056 0 0 0 8.08 3.063zm4.385 7.04c-4.972 1.487-9.743 1.38-9.914 1.374-.002.103-.007.204-.007.307 0 2.477.935 4.736 2.474 6.443-.004-.005 2.639-4.686 7.85-6.369.125-.042.254-.08.38-.116a32.59 32.59 0 0 0-.783-1.638zm6.111-5.555A9.617 9.617 0 0 0 12.2 2.143c-.784 0-1.545.095-2.275.27.145.194 1.959 2.597 3.61 5.625 3.643-1.364 5.019-3.455 5.042-3.49zm-4.67 8.792l-.063.021c-5.698 1.983-7.558 5.98-7.578 6.024a9.644 9.644 0 0 0 5.934 2.04c1.338 0 2.611-.271 3.77-.763-.143-.843-.704-3.796-2.062-7.322zm3.69 6.44a9.644 9.644 0 0 0 4.137-6.467c-.199-.064-2.9-.918-6.017-.42 1.266 3.476 1.781 6.307 1.88 6.888zM14.276 9.475a30.406 30.406 0 0 1 .85 1.898c3.317-.417 6.585.284 6.725.313a9.585 9.585 0 0 0-2.196-6.026c-.018.026-1.567 2.26-5.379 3.815z"/>
</svg>
