<svg xmlns="http://www.w3.org/2000/svg" width="24" height="24" viewBox="0 0 24 24">
    <path fill="#8B286E" fill-rule="evenodd" d="M12.001.493c-3.07 0-3.456.014-4.662.069-1.204.055-2.025.245-2.744.525A5.537 5.537 0 0 0 2.592 2.39a5.55 5.55 0 0 0-1.305 2.002c-.28.72-.471 1.541-.526 2.745C.707 8.344.693 8.729.693 11.8c0 3.07.014 3.455.069 4.661.055 1.204.246 2.025.525 2.744a5.54 5.54 0 0 0 1.304 2.003 5.536 5.536 0 0 0 2.002 1.305c.72.28 1.541.47 2.745.526 1.206.054 1.591.068 4.662.068 3.07 0 3.455-.014 4.66-.068 1.205-.056 2.027-.246 2.747-.526a5.532 5.532 0 0 0 2.001-1.305 5.55 5.55 0 0 0 1.305-2.002c.278-.72.469-1.541.525-2.745.055-1.206.069-1.59.069-4.66 0-3.072-.014-3.457-.069-4.663-.056-1.204-.247-2.025-.525-2.744a5.55 5.55 0 0 0-1.305-2.003 5.526 5.526 0 0 0-2.002-1.304c-.721-.28-1.543-.47-2.747-.525-1.206-.055-1.59-.069-4.661-.069H12zm-1.014 2.038H12c3.019 0 3.377.01 4.569.065 1.102.05 1.7.235 2.1.39.527.204.903.45 1.299.845.395.396.64.773.846 1.3.154.398.339.997.39 2.1.053 1.191.065 1.549.065 4.567 0 3.017-.012 3.375-.066 4.567-.05 1.102-.235 1.7-.39 2.099-.204.527-.45.903-.845 1.299-.396.395-.772.64-1.3.845-.398.156-.997.34-2.1.39-1.191.054-1.549.066-4.568.066-3.02 0-3.377-.012-4.569-.066-1.102-.05-1.7-.235-2.1-.39a3.502 3.502 0 0 1-1.3-.846 3.504 3.504 0 0 1-.846-1.3c-.155-.397-.339-.996-.39-2.098-.053-1.192-.064-1.55-.064-4.57 0-3.019.01-3.375.065-4.567.05-1.102.234-1.7.39-2.1.204-.527.45-.904.845-1.3.396-.395.773-.64 1.3-.845.4-.156.998-.34 2.1-.39 1.043-.047 1.447-.062 3.555-.064v.003zm7.05 1.877a1.357 1.357 0 1 0 0 2.714 1.357 1.357 0 0 0 0-2.714zM12 5.994a5.807 5.807 0 1 0 .001 11.613 5.807 5.807 0 0 0-.001-11.613zm0 2.037a3.769 3.769 0 1 1 0 7.538 3.769 3.769 0 0 1 0-7.538z"/>
</svg>
