<svg xmlns="http://www.w3.org/2000/svg" width="22" height="18" viewBox="0 0 22 18">
    <path fill="#8B286E" fill-rule="evenodd" d="M10.565 4.832l.045.733-.742-.09C7.17 5.131 4.811 3.963 2.81 2.002l-.98-.973-.251.719c-.534 1.602-.193 3.293.92 4.431.592.629.459.719-.564.344-.356-.12-.668-.21-.697-.164-.104.104.252 1.467.533 2.006.386.748 1.172 1.482 2.032 1.916l.727.344-.86.015c-.83 0-.86.015-.772.33.297.973 1.469 2.006 2.773 2.455l.92.314-.8.48a8.349 8.349 0 0 1-3.975 1.107c-.667.015-1.216.075-1.216.12 0 .15 1.81.988 2.862 1.317 3.159.973 6.91.554 9.728-1.108 2.002-1.182 4.004-3.533 4.938-5.808.504-1.213 1.008-3.428 1.008-4.491 0-.69.045-.779.875-1.602.49-.48.95-1.003 1.038-1.153.148-.284.134-.284-.623-.03-1.26.45-1.438.39-.815-.284.46-.48 1.008-1.348 1.008-1.602 0-.045-.222.03-.474.164-.267.15-.86.375-1.305.51l-.801.254-.727-.494c-.4-.27-.964-.569-1.26-.659-.757-.21-1.913-.18-2.595.06-1.854.674-3.025 2.41-2.892 4.312z"/>
</svg>
