<svg xmlns="http://www.w3.org/2000/svg" xmlns:xlink="http://www.w3.org/1999/xlink" width="530" height="661" viewBox="0 0 530 661">
    <defs>
        <rect id="a" width="140" height="100" rx="2"/>
        <rect id="b" width="120" height="80" x="10" y="10" rx="2"/>
        <path id="c" d="M32.797 18.762l-8.056 10.7c.618 2.481.238 4.812-1.27 6.32-2.813 2.812-8.483 1.702-12.664-2.48-4.182-4.181-5.292-9.851-2.48-12.663 1.731-1.731 4.545-1.976 7.428-.933l10.044-7.696c-.251-1.438.043-2.774.942-3.674 1.812-1.812 5.395-1.167 8.002 1.44 2.607 2.607 3.251 6.189 1.44 8-.84.84-2.06 1.152-3.386.986z"/>
        <path id="d" d="M32.797 18.762l-8.056 10.7c.618 2.481.238 4.812-1.27 6.32-2.813 2.812-8.483 1.702-12.664-2.48-4.182-4.181-5.292-9.851-2.48-12.663 1.731-1.731 4.545-1.976 7.428-.933l10.044-7.696c-.251-1.438.043-2.774.942-3.674 1.812-1.812 5.395-1.167 8.002 1.44 2.607 2.607 3.251 6.189 1.44 8-.84.84-2.06 1.152-3.386.986z"/>
        <linearGradient id="f" x1="70.202%" x2="46.479%" y1="60.919%" y2="5.516%">
            <stop offset="0%" stop-color="#FFD4CD"/>
            <stop offset="99.944%" stop-color="#FFEAE4"/>
        </linearGradient>
        <path id="e" d="M0 0h530v345H0z"/>
    </defs>
    <g fill="none" fill-rule="evenodd">
        <path fill="#FFF" d="M0 0h530v661H0z"/>
        <g transform="translate(165 576)">
            <rect width="5" height="5" x="26" y="11" fill="#00D190" rx="2"/>
            <rect width="5" height="5" x="26" y="17" fill="#16A6FF" rx="2"/>
            <rect width="5" height="5" x="26" y="23" fill="#F76891" rx="2"/>
            <rect width="5" height="5" x="26" y="5" fill="#FFDE00" rx="2"/>
            <path fill="#BED6F5" fill-rule="nonzero" d="M2 3.498v27.004C2 32.435 3.512 34 5.375 34h19.25C26.488 34 28 32.435 28 30.502V3.498C28 1.565 26.488 0 24.625 0H5.375C3.512 0 2 1.565 2 3.498z"/>
            <rect width="7" height="2" x="12" y="10.999" fill="#3A4858" rx="1"/>
            <rect width="7" height="2" x="12" y="16" fill="#3A4858" rx="1"/>
            <rect width="7" height="2" x="12" y="21" fill="#3A4858" rx="1"/>
            <rect width="5" height="3" y="8" fill="#323F4E" rx="1.5"/>
            <rect width="5" height="3" y="15" fill="#323F4E" rx="1.5"/>
            <rect width="5" height="3" y="22" fill="#323F4E" rx="1.5"/>
        </g>
        <g transform="translate(219 578)">
            <path fill="#B5D0F5" d="M0 5c0-1.657 1.343-3 3.008-3h19.984A3.007 3.007 0 0 1 26 5.008v18.291c0 .553-.3 1.333-.671 1.74l-5.658 6.223c-.37.407-1.122.738-1.666.738H3c-1.657 0-3-1.347-3-3V5z"/>
            <path fill="#5EC5FF" d="M25.88 24c-.12.394-.323.787-.551 1.039l-5.658 6.223c-.37.407-1.122.738-1.666.738H18v-6.002c0-1.103.887-1.998 1.998-1.998h5.883z"/>
            <rect width="2" height="2" x="6" y="7" fill="#FFF" rx="1"/>
            <rect width="2" height="2" x="9" y="7" fill="#FFF" rx="1"/>
            <rect width="2" height="2" x="12" y="7" fill="#FFF" rx="1"/>
            <rect width="2" height="2" x="15" y="7" fill="#FFF" rx="1"/>
            <rect width="2" height="2" x="18" y="7" fill="#FFF" rx="1"/>
            <path fill="#2C3745" fill-rule="nonzero" d="M7.73 26.577c3.34-2.37 4.64-5.529 4.012-8.517-.555-2.642-2.612-4.557-4.489-3.82-2.758 1.084-1.869 5.799 1.044 8.596 1.175 1.13 2.535 1.893 3.703 2.04 1.474.185 2.555-.622 2.749-2.212.219-1.794.316-2.493.416-2.944.03-.134.057-.226.077-.276-.01.022-.04.07-.132.134-.31.219-.532.13-.615.05-.046-.044.868 1.022 1.35 1.455l.137.12c2.538 2.167 4.903.936 3.76-2.29a.75.75 0 0 0-1.414.502c.582 1.642.092 1.897-1.372.647a6.018 6.018 0 0 1-.109-.096c-.39-.35-1.282-1.39-1.311-1.418-.84-.808-1.584-.283-1.835.846-.116.52-.215 1.23-.441 3.088-.092.752-.41.99-1.073.906-.807-.102-1.89-.71-2.851-1.634-2.256-2.166-2.9-5.581-1.535-6.118.804-.315 2.083.875 2.474 2.733.503 2.393-.552 4.955-3.413 6.985a.75.75 0 0 0 .869 1.223z"/>
            <circle cx="20.75" cy="16.75" r="1" fill="#2C3745"/>
            <rect width="3" height="5" x="18" fill="#2C3745" rx="1.5"/>
            <rect width="3" height="5" x="5" fill="#2C3745" rx="1.5"/>
        </g>
        <g fill-rule="nonzero">
            <path fill="#FFDE00" d="M350.414 589.03l-2.038-2.038c.426.215.826.5 1.182.857.356.355.641.755.856 1.182zm-20.75 12.88l5.831 5.831c-.614.309-1.247.547-1.8.661l-3.466.717c-1.246.257-2.206-.722-1.946-1.966l.714-3.429c.117-.56.357-1.197.667-1.814z"/>
            <path fill="#323F4E" d="M328.649 605.397l3.354 3.355-1.774.367c-1.246.257-2.206-.722-1.946-1.966l.366-1.756z"/>
            <path fill="#F76891" d="M342.635 588.3l.103-.104a4.6 4.6 0 1 1 6.46 6.482l-.092.092-6.471-6.47z"/>
            <path fill="#00D190" d="M342.032 588.902l2.836 2.836-12 12-2.706-2.706c.292-.457.612-.872.935-1.194l10.935-10.936z"/>
            <path fill="#5EC5FF" d="M336.396 607.229l-2.97-2.97 11.993-11.992 3.095 3.095-.003.003-10.943 10.944a7.115 7.115 0 0 1-1.172.92z"/>
        </g>
        <g transform="translate(113 376)">
            <g fill="#FFEF2C" transform="translate(211 62)">
                <rect width="2" height="8" x="3" rx="1"/>
                <rect width="8" height="2" y="3" rx="1"/>
            </g>
            <g fill="#FFEF2C" transform="translate(67 46)">
                <rect width="1.5" height="6" x="2.25" rx=".75"/>
                <rect width="6" height="1.5" y="2.25" rx=".75"/>
            </g>
            <g fill="#FFEF2C" transform="translate(69 121)">
                <rect width="1.5" height="6" x="2.25" rx=".75"/>
                <rect width="6" height="1.5" y="2.25" rx=".75"/>
            </g>
            <g fill="#FFEF2C" transform="translate(176 38)">
                <rect width="1" height="4" x="1.5" rx=".5"/>
                <rect width="4" height="1" y="1.5" rx=".5"/>
            </g>
            <g fill="#FFEF2C" transform="translate(209 114)">
                <rect width="1" height="4" x="1.5" rx=".5"/>
                <rect width="4" height="1" y="1.5" rx=".5"/>
            </g>
            <g transform="translate(72 41)">
                <use fill="#D1E5FF" xlink:href="#a"/>
                <rect width="139" height="99" x=".5" y=".5" stroke="#65768A" rx="2"/>
            </g>
            <g transform="translate(72 41)">
                <use fill="#9FBFE9" xlink:href="#b"/>
                <rect width="119" height="79" x="10.5" y="10.5" stroke="#65768A" rx="2"/>
            </g>
            <path stroke="#65768A" stroke-linecap="square" d="M82.5 51.5l-9.08-8.99M82.9 130l-9.9 9.9M201.5 130.5l9.095 9.248M201.5 51.5l9.095-9.294"/>
            <path fill="#BED6F5" d="M89 59h106v66H89z"/>
            <g transform="translate(128 87)">
                <circle cx="2.5" cy="2.5" r="2.5" fill="#323F4E"/>
                <circle cx="25.5" cy="2.5" r="2.5" fill="#323F4E"/>
                <path fill="#323F4E" d="M4 10h20c0 5.848-4.477 10.588-10 10.588S4 15.848 4 10z"/>
                <path fill="#FF7FA8" d="M8.958 16.174c1.134-.965 2.97-1.591 5.04-1.591 2.071 0 3.906.626 5.04 1.591-1.33 1.329-3.098 2.139-5.04 2.139-1.941 0-3.71-.81-5.04-2.139z"/>
            </g>
            <ellipse cx="142" cy="162" fill="#EDEDED" rx="80" ry="3"/>
            <g fill="#FFEF2C" transform="translate(217 71)">
                <rect width="1" height="4" x="1.5" rx=".5"/>
                <rect width="4" height="1" y="1.5" rx=".5"/>
            </g>
            <path fill="#9FBFE9" d="M86.307 75.386c.354-10.137 1.422-14.754 1.422-14.754.105-.535.637-.953 1.188-.933l27.968.976c.55.02.911.475.815 1.019 0 0-.935 4.293-1.257 13.516-.322 9.223 3.268 12.068 3.268 12.068.37.393.215.743-.327.781l-28.472 1.987c-.55.039-1.267-.288-1.576-.752 0 0-3.383-3.772-3.029-13.908z"/>
            <path fill="#00FFA6" d="M90.824 72.313c-.66-9.45-.124-13.783-.124-13.783.048-.54.527-1.024 1.084-1.083l26.025-2.74c.55-.057.958.344.917.889 0 0-.53 5.013.072 13.611.6 8.598 5.099 11.003 5.099 11.003.443.315.36.648-.181.744l-26.123 4.602c-.543.096-1.322-.123-1.715-.511 0 0-4.393-3.282-5.054-12.732z"/>
            <path fill="#00DB8E" d="M90.973 65.412c.048-2.403.1-5.949.1-5.949a1.167 1.167 0 0 1 1.01-1.113l25.032-2.78a.886.886 0 0 1 1.006.888s.11 2.981-.417 5.491c.227.505-26.142 3.395-26.73 3.463z"/>
            <path stroke="#65768A" d="M123.406 80.5c-.608-.39-1.414-1.123-2.24-2.276-1.554-2.171-2.598-5.129-2.867-8.982-.264-3.777-.335-7.151-.263-10.077.026-1.026.067-1.923.117-2.685.031-.46.058-.774.074-.922.018-.236-.128-.378-.366-.353l-26.024 2.74a.754.754 0 0 0-.64.646c-.017.127-.042.393-.072.8a51.43 51.43 0 0 0-.11 2.498c-.065 2.815.02 6.27.308 10.39.284 4.056 1.27 7.254 2.707 9.69a12.072 12.072 0 0 0 1.518 2.075c.295.319.516.515.681.645.27.265.881.445 1.278.375l25.9-4.564z"/>
            <path fill="#323F4E" d="M108.714 38.19L94.102 54.26l5.793 3.761z"/>
            <g transform="scale(-1 1) rotate(-33 -30.977 225.644)">
                <use fill="#F76891" xlink:href="#c"/>
                <path stroke="#323F4E" d="M24.199 29.35l8.372-11.12.288.036c1.22.153 2.27-.142 2.97-.843 1.583-1.583.994-4.86-1.44-7.294-2.433-2.433-5.71-3.023-7.294-1.44-.751.752-1.036 1.905-.803 3.234l.052.299-10.502 8.047-.257-.093c-2.799-1.012-5.372-.717-6.904.816-2.58 2.58-1.53 7.947 2.48 11.957 4.009 4.009 9.375 5.06 11.956 2.48 1.332-1.332 1.736-3.45 1.14-5.847l-.058-.231z"/>
            </g>
            <path stroke="#323F4E" stroke-linecap="round" d="M97.462 16.313s-2.24 1.83-5.032 1.07M102.256 32.3s-3.099 2.589-6.984 1.484"/>
            <path fill="#9FBFE9" d="M195.197 107.92c2.282-9.883 2.504-14.606 2.504-14.606.042-.542-.352-1.081-.895-1.206l-25.34-5.85c-.537-.124-1.007.222-1.06.77 0 0-.258 4.377-2.334 13.37-2.076 8.991-6.009 10.84-6.009 10.84-.453.303-.397.699.122.882l25.037 8.823c.52.184 1.286.046 1.687-.332 0 0 4.006-2.808 6.288-12.691z"/>
            <path fill="#00D7FF" d="M194.572 104.361c3.084-8.956 3.687-13.281 3.687-13.281.094-.534-.244-1.126-.767-1.326l-24.429-9.382c-.517-.199-1.014.083-1.115.62 0 0-.786 4.98-3.592 13.13-2.807 8.149-7.774 9.307-7.774 9.307-.51.19-.516.533-.017.765l24.04 11.207c.5.233 1.31.223 1.79-.05 0 0 5.093-2.033 8.177-10.99z"/>
            <path fill="#00AAE5" d="M196.214 97.657c.575-2.333 1.443-5.772 1.443-5.772a1.167 1.167 0 0 0-.687-1.337l-23.46-9.165a.886.886 0 0 0-1.202.599s-.877 2.85-1.018 5.412c-.35.429 24.372 10.045 24.924 10.263z" opacity=".414"/>
            <path stroke="#65768A" d="M160.981 103.837c.689-.22 1.657-.719 2.753-1.62 2.063-1.694 3.837-4.281 5.094-7.933 1.233-3.58 2.174-6.821 2.862-9.666.241-.997.433-1.874.582-2.624a26.4 26.4 0 0 0 .167-.91c.044-.232.222-.331.445-.245l24.429 9.381c.299.115.506.475.451.79-.018.127-.061.39-.138.791a51.43 51.43 0 0 1-.54 2.442c-.666 2.736-1.643 6.051-2.987 9.955-1.324 3.846-3.104 6.68-5.122 8.66-.7.687-1.377 1.218-2.004 1.612a5.909 5.909 0 0 1-.825.446c-.329.187-.966.202-1.331.032l-23.836-11.111z"/>
            <path fill="#323F4E" d="M195.466 71.09l.486 21.714-6.84-.962z"/>
            <g transform="rotate(8 -221.05 1403.897)">
                <use fill="#F76891" xlink:href="#d"/>
                <path stroke="#323F4E" d="M24.199 29.35l8.372-11.12.288.036c1.22.153 2.27-.142 2.97-.843 1.583-1.583.994-4.86-1.44-7.294-2.433-2.433-5.71-3.023-7.294-1.44-.751.752-1.036 1.905-.803 3.234l.052.299-10.502 8.047-.257-.093c-2.799-1.012-5.372-.717-6.904.816-2.58 2.58-1.53 7.947 2.48 11.957 4.009 4.009 9.375 5.06 11.956 2.48 1.332-1.332 1.736-3.45 1.14-5.847l-.058-.231z"/>
            </g>
            <path stroke="#323F4E" stroke-linecap="round" d="M218.311 61.962s.49 2.85 3.096 4.108M204.205 70.881s.64 3.988 4.297 5.703"/>
            <g fill="#FFEF2C" transform="translate(41 45)">
                <rect width="4" height="2" y="8" rx="1"/>
                <rect width="2" height="4" x="8" y="14" rx="1"/>
                <rect width="4" height="2" x="14" y="8" rx="1"/>
                <rect width="2" height="4" x="8" rx="1"/>
                <rect width="4" height="2" x="1.929" y="2.929" rx="1"/>
                <rect width="2" height="4" x="2.929" y="12.071" rx="1"/>
                <rect width="4" height="2" x="12.071" y="13.071" rx="1"/>
                <rect width="2" height="4" x="13.071" y="1.929" rx="1"/>
            </g>
            <path fill="#FFEF2C" d="M242 48.994c0-1.1-.895-1.994-2-1.994-1.112 0-2 .893-2 1.994v2.003A1.998 1.998 0 0 1 235.997 53h-2.003c-1.1 0-1.994.895-1.994 2 0 1.112.893 2 1.994 2h2.003c1.106 0 2.003.889 2.003 2.003v2.003c0 1.1.895 1.994 2 1.994 1.112 0 2-.893 2-1.994v-2.003c0-1.106.889-2.003 2.003-2.003h2.003c1.1 0 1.994-.895 1.994-2 0-1.112-.893-2-1.994-2h-2.003A1.998 1.998 0 0 1 242 50.997v-2.003z"/>
            <g fill="#FFEF2C" transform="translate(249 35)">
                <rect width="2" height="8" x="3" rx="1"/>
                <rect width="8" height="2" y="3" rx="1"/>
            </g>
            <g fill="#FFEF2C" transform="translate(0 98)">
                <rect width="1" height="4" x="1.5" rx=".5"/>
                <rect width="4" height="1" y="1.5" rx=".5"/>
            </g>
            <g fill="#FFEF2C" transform="translate(54 133)">
                <rect width="1" height="3" x="1.125" rx=".5"/>
                <rect width="3" height="1" y="1.125" rx=".5"/>
            </g>
            <g fill="#FFEF2C" transform="translate(215 87)">
                <rect width="2.667" height="1.333" y="5.333" rx=".667"/>
                <rect width="1.333" height="2.667" x="5.333" y="9.333" rx=".667"/>
                <rect width="2.667" height="1.333" x="9.333" y="5.333" rx=".667"/>
                <rect width="1.333" height="2.667" x="5.333" rx=".667"/>
                <rect width="2.667" height="1.333" x="1.286" y="1.953" rx=".667"/>
                <rect width="1.333" height="2.667" x="1.953" y="8.047" rx=".667"/>
                <rect width="2.667" height="1.333" x="8.047" y="8.714" rx=".667"/>
                <rect width="1.333" height="2.667" x="8.714" y="1.286" rx=".667"/>
            </g>
            <g fill="#FFEF2C" transform="translate(39 112)">
                <rect width="2" height="8" x="3" rx="1"/>
                <rect width="8" height="2" y="3" rx="1"/>
            </g>
            <g fill="#FFEF2C" transform="translate(249 65)">
                <rect width="1" height="4" x="1.5" rx=".5"/>
                <rect width="4" height="1" y="1.5" rx=".5"/>
            </g>
            <g fill="#FFEF2C" transform="translate(230 80)">
                <rect width="1" height="4" x="1.5" rx=".5"/>
                <rect width="4" height="1" y="1.5" rx=".5"/>
            </g>
            <g fill="#FFEF2C" transform="translate(270 23)">
                <rect width="1.25" height="5" x="1.875" rx=".625"/>
                <rect width="5" height="1.25" y="1.875" rx=".625"/>
            </g>
            <g fill="#FFEF2C" transform="translate(233 27)">
                <rect width="1.5" height="6" x="2.25" rx=".75"/>
                <rect width="6" height="1.5" y="2.25" rx=".75"/>
            </g>
            <g fill="#FFEF2C" transform="translate(37 72)">
                <rect width="1.5" height="6" x="2.25" rx=".75"/>
                <rect width="6" height="1.5" y="2.25" rx=".75"/>
            </g>
            <g fill="#FFEF2C" transform="translate(222 44)">
                <rect width="1" height="4" x="1.5" rx=".5"/>
                <rect width="4" height="1" y="1.5" rx=".5"/>
            </g>
            <g fill="#FFEF2C" transform="translate(217 15)">
                <rect width="1" height="4" x="1.5" rx=".5"/>
                <rect width="4" height="1" y="1.5" rx=".5"/>
            </g>
            <g fill="#FFEF2C" transform="translate(17 83)">
                <rect width="1" height="4" x="1.5" rx=".5"/>
                <rect width="4" height="1" y="1.5" rx=".5"/>
            </g>
            <g fill="#FFEF2C" transform="translate(14 109)">
                <rect width="1.778" height="1" y="3.556" rx=".5"/>
                <rect width="1" height="1.778" x="3.556" y="6.222" rx=".5"/>
                <rect width="1.778" height="1" x="6.222" y="3.556" rx=".5"/>
                <rect width="1" height="1.778" x="3.556" rx=".5"/>
                <rect width="1.778" height="1" x=".857" y="1.302" rx=".5"/>
                <rect width="1" height="1.778" x="1.302" y="5.365" rx=".5"/>
                <rect width="1.778" height="1" x="5.365" y="5.809" rx=".5"/>
                <rect width="1" height="1.778" x="5.809" y=".857" rx=".5"/>
            </g>
            <g fill="#FFEF2C" transform="translate(47 84)">
                <rect width="1.778" height="1" y="3.556" rx=".5"/>
                <rect width="1" height="1.778" x="3.556" y="6.222" rx=".5"/>
                <rect width="1.778" height="1" x="6.222" y="3.556" rx=".5"/>
                <rect width="1" height="1.778" x="3.556" rx=".5"/>
                <rect width="1.778" height="1" x=".857" y="1.302" rx=".5"/>
                <rect width="1" height="1.778" x="1.302" y="5.365" rx=".5"/>
                <rect width="1.778" height="1" x="5.365" y="5.809" rx=".5"/>
                <rect width="1" height="1.778" x="5.809" y=".857" rx=".5"/>
            </g>
            <g fill="#FFEF2C" transform="translate(190 29)">
                <rect width="1.778" height="1" y="3.556" rx=".5"/>
                <rect width="1" height="1.778" x="3.556" y="6.222" rx=".5"/>
                <rect width="1.778" height="1" x="6.222" y="3.556" rx=".5"/>
                <rect width="1" height="1.778" x="3.556" rx=".5"/>
                <rect width="1.778" height="1" x=".857" y="1.302" rx=".5"/>
                <rect width="1" height="1.778" x="1.302" y="5.365" rx=".5"/>
                <rect width="1.778" height="1" x="5.365" y="5.809" rx=".5"/>
                <rect width="1" height="1.778" x="5.809" y=".857" rx=".5"/>
            </g>
            <g fill="#FFEF2C" transform="translate(247 18)">
                <rect width="1.778" height="1" y="3.556" rx=".5"/>
                <rect width="1" height="1.778" x="3.556" y="6.222" rx=".5"/>
                <rect width="1.778" height="1" x="6.222" y="3.556" rx=".5"/>
                <rect width="1" height="1.778" x="3.556" rx=".5"/>
                <rect width="1.778" height="1" x=".857" y="1.302" rx=".5"/>
                <rect width="1" height="1.778" x="1.302" y="5.365" rx=".5"/>
                <rect width="1.778" height="1" x="5.365" y="5.809" rx=".5"/>
                <rect width="1" height="1.778" x="5.809" y=".857" rx=".5"/>
            </g>
            <path fill="#FFEF2C" d="M214.5 30.496c0-.825-.672-1.496-1.5-1.496-.834 0-1.5.67-1.5 1.496V32.5c0 .552-.443 1-1 1h-2.004c-.825 0-1.496.672-1.496 1.5 0 .834.67 1.5 1.496 1.5h2.004c.552 0 1 .443 1 1v2.004c0 .825.672 1.496 1.5 1.496.834 0 1.5-.67 1.5-1.496V37.5c0-.552.443-1 1-1h2.004c.825 0 1.496-.672 1.496-1.5 0-.834-.67-1.5-1.496-1.5H215.5c-.552 0-1-.443-1-1v-2.004zM65.5 68.496C65.5 67.67 64.828 67 64 67c-.834 0-1.5.67-1.5 1.496V70.5c0 .552-.443 1-1 1h-2.004C58.67 71.5 58 72.172 58 73c0 .834.67 1.5 1.496 1.5H61.5c.552 0 1 .443 1 1v2.004c0 .825.672 1.496 1.5 1.496.834 0 1.5-.67 1.5-1.496V75.5c0-.552.443-1 1-1h2.004C69.33 74.5 70 73.828 70 73c0-.834-.67-1.5-1.496-1.5H66.5c-.552 0-1-.443-1-1v-2.004zM34.5 92.496C34.5 91.67 33.828 91 33 91c-.834 0-1.5.67-1.5 1.496V94.5c0 .552-.443 1-1 1h-2.004C27.67 95.5 27 96.172 27 97c0 .834.67 1.5 1.496 1.5H30.5c.552 0 1 .443 1 1v2.004c0 .825.672 1.496 1.5 1.496.834 0 1.5-.67 1.5-1.496V99.5c0-.552.443-1 1-1h2.004C38.33 98.5 39 97.828 39 97c0-.834-.67-1.5-1.496-1.5H35.5c-.552 0-1-.443-1-1v-2.004zM63.375 99.87c0-1.031-.84-1.87-1.875-1.87a1.868 1.868 0 0 0-1.875 1.87v2.749c0 .555-.446 1.006-1.006 1.006h-2.75c-1.03 0-1.869.84-1.869 1.875 0 1.043.837 1.875 1.87 1.875h2.749c.555 0 1.006.446 1.006 1.006v2.75c0 1.03.84 1.869 1.875 1.869a1.868 1.868 0 0 0 1.875-1.87v-2.749c0-.555.446-1.006 1.006-1.006h2.75c1.03 0 1.869-.84 1.869-1.875a1.868 1.868 0 0 0-1.87-1.875h-2.749a1.003 1.003 0 0 1-1.006-1.006v-2.75z"/>
        </g>
        <path fill="#BED6F5" d="M282.75 592.292c-1.294.814-2.655 1.329-3.956 1.522v14.098c0 1.104.905 2 2 2H304a2 2 0 0 0 2.001-2V587.97c0-1.105-.905-2-2-2h-16.114a10.61 10.61 0 0 1-.402.993l6.057 10.484c.825 1.429.362 1.876-1.037.993l-9.754-6.15z"/>
        <path fill="#16A6FF" d="M292.441 594.676h7.125c.548 0 .993.447.993.993v7.809a.994.994 0 0 1-.993.993h-7.808a.994.994 0 0 1-.993-.993v-5.875l2.763 1.742c1.399.882 1.862.435 1.036-.994l-2.123-3.675z"/>
        <path fill="#FFEF2C" d="M290.054 591.412h6.247c.549 0 .993.446.993.993v7.808a.994.994 0 0 1-.993.993h-7.808a.994.994 0 0 1-.993-.993v-4.927l5.004 3.155c1.4.883 1.862.436 1.037-.993l-3.487-6.036z"/>
        <path fill="#323F4E" d="M285.991 584.13l-1.874 11.464h3.695z"/>
        <path fill="#F76891" d="M271.616 580.208l4.309 5.723c-.33 1.327-.127 2.574.68 3.38 1.504 1.505 4.537.911 6.773-1.326 2.237-2.236 2.83-5.269 1.327-6.773-.926-.926-2.431-1.057-3.973-.5l-5.373-4.116c.135-.768-.023-1.483-.504-1.965-.969-.969-2.885-.624-4.28.77-1.394 1.395-1.739 3.31-.77 4.28.45.45 1.102.616 1.811.527z"/>
        <g>
            <mask id="g" fill="#fff">
                <use xlink:href="#e"/>
            </mask>
            <use fill="url(#f)" xlink:href="#e"/>
            <g mask="url(#g)">
                <g transform="translate(133 71)">
                    <g fill="#FFF" transform="translate(77 51)">
                        <rect width="1.5" height="6" x="2.25" rx=".75"/>
                        <rect width="6" height="1.5" y="2.25" rx=".75"/>
                    </g>
                    <g fill="#FFF" transform="translate(69 126)">
                        <rect width="1.5" height="6" x="2.25" rx=".75"/>
                        <rect width="6" height="1.5" y="2.25" rx=".75"/>
                    </g>
                    <g fill="#FFF" transform="translate(156 33)">
                        <rect width="1" height="4" x="1.5" rx=".5"/>
                        <rect width="4" height="1" y="1.5" rx=".5"/>
                    </g>
                    <g fill="#FFF" transform="translate(189 109)">
                        <rect width="1" height="4" x="1.5" rx=".5"/>
                        <rect width="4" height="1" y="1.5" rx=".5"/>
                    </g>
                    <g transform="translate(118 82)">
                        <circle cx="2.5" cy="2.5" r="2.5" fill="#323F4E"/>
                        <circle cx="25.5" cy="2.5" r="2.5" fill="#323F4E"/>
                        <path fill="#323F4E" d="M4 10h20c0 5.848-4.477 10.588-10 10.588S4 15.848 4 10z"/>
                        <path fill="#FF7FA8" d="M8.958 16.174c1.134-.965 2.97-1.591 5.04-1.591 2.071 0 3.906.626 5.04 1.591-1.33 1.329-3.098 2.139-5.04 2.139-1.941 0-3.71-.81-5.04-2.139z"/>
                    </g>
                    <ellipse cx="132" cy="157" fill="#323F4E" fill-opacity=".2" rx="80" ry="3"/>
                    <g fill="#FFF" transform="translate(41 50)">
                        <rect width="4" height="2" y="8" rx="1"/>
                        <rect width="2" height="4" x="8" y="14" rx="1"/>
                        <rect width="4" height="2" x="14" y="8" rx="1"/>
                        <rect width="2" height="4" x="8" rx="1"/>
                        <rect width="4" height="2" x="1.929" y="2.929" rx="1"/>
                        <rect width="2" height="4" x="2.929" y="12.071" rx="1"/>
                        <rect width="4" height="2" x="12.071" y="13.071" rx="1"/>
                        <rect width="2" height="4" x="13.071" y="1.929" rx="1"/>
                    </g>
                    <path fill="#FFF" d="M212 36.994c0-1.1-.895-1.994-2-1.994-1.112 0-2 .893-2 1.994v2.003A1.998 1.998 0 0 1 205.997 41h-2.003c-1.1 0-1.994.895-1.994 2 0 1.112.893 2 1.994 2h2.003c1.106 0 2.003.889 2.003 2.003v2.003c0 1.1.895 1.994 2 1.994 1.112 0 2-.893 2-1.994v-2.003c0-1.106.889-2.003 2.003-2.003h2.003c1.1 0 1.994-.895 1.994-2 0-1.112-.893-2-1.994-2h-2.003A1.998 1.998 0 0 1 212 38.997v-2.003z"/>
                    <g fill="#FFF" transform="translate(229 30)">
                        <rect width="2" height="8" x="3" rx="1"/>
                        <rect width="8" height="2" y="3" rx="1"/>
                    </g>
                    <g fill="#FFF" transform="translate(0 103)">
                        <rect width="1" height="4" x="1.5" rx=".5"/>
                        <rect width="4" height="1" y="1.5" rx=".5"/>
                    </g>
                    <g fill="#FFF" transform="translate(54 140)">
                        <rect width="1" height="3" x="1.125" rx=".5"/>
                        <rect width="3" height="1" y="1.125" rx=".5"/>
                    </g>
                    <g fill="#FFF" transform="translate(195 82)">
                        <rect width="2.667" height="1.333" y="5.333" rx=".667"/>
                        <rect width="1.333" height="2.667" x="5.333" y="9.333" rx=".667"/>
                        <rect width="2.667" height="1.333" x="9.333" y="5.333" rx=".667"/>
                        <rect width="1.333" height="2.667" x="5.333" rx=".667"/>
                        <rect width="2.667" height="1.333" x="1.286" y="1.953" rx=".667"/>
                        <rect width="1.333" height="2.667" x="1.953" y="8.047" rx=".667"/>
                        <rect width="2.667" height="1.333" x="8.047" y="8.714" rx=".667"/>
                        <rect width="1.333" height="2.667" x="8.714" y="1.286" rx=".667"/>
                    </g>
                    <g fill="#FFF" transform="translate(39 117)">
                        <rect width="2" height="8" x="3" rx="1"/>
                        <rect width="8" height="2" y="3" rx="1"/>
                    </g>
                    <g fill="#FFF" transform="translate(232 50)">
                        <rect width="2" height="8" x="3" rx="1"/>
                        <rect width="8" height="2" y="3" rx="1"/>
                    </g>
                    <g fill="#FFF" transform="translate(250 18)">
                        <rect width="1.25" height="5" x="1.875" rx=".625"/>
                        <rect width="5" height="1.25" y="1.875" rx=".625"/>
                    </g>
                    <g fill="#FFF" transform="translate(197 21)">
                        <rect width="2" height="8" x="3" rx="1"/>
                        <rect width="8" height="2" y="3" rx="1"/>
                    </g>
                    <g fill="#FFF" transform="translate(17 77)">
                        <rect width="2" height="8" x="3" rx="1"/>
                        <rect width="8" height="2" y="3" rx="1"/>
                    </g>
                    <g fill="#FFF" transform="translate(196)">
                        <rect width="1" height="4" x="1.5" rx=".5"/>
                        <rect width="4" height="1" y="1.5" rx=".5"/>
                    </g>
                    <g fill="#FFF" transform="translate(14 111)">
                        <rect width="2.667" height="1.333" y="5.333" rx=".667"/>
                        <rect width="1.333" height="2.667" x="5.333" y="9.333" rx=".667"/>
                        <rect width="2.667" height="1.333" x="9.333" y="5.333" rx=".667"/>
                        <rect width="1.333" height="2.667" x="5.333" rx=".667"/>
                        <rect width="2.667" height="1.333" x="1.286" y="1.953" rx=".667"/>
                        <rect width="1.333" height="2.667" x="1.953" y="8.047" rx=".667"/>
                        <rect width="2.667" height="1.333" x="8.047" y="8.714" rx=".667"/>
                        <rect width="1.333" height="2.667" x="8.714" y="1.286" rx=".667"/>
                    </g>
                    <g fill="#FFF" transform="translate(47 86)">
                        <rect width="2.667" height="1.333" y="5.333" rx=".667"/>
                        <rect width="1.333" height="2.667" x="5.333" y="9.333" rx=".667"/>
                        <rect width="2.667" height="1.333" x="9.333" y="5.333" rx=".667"/>
                        <rect width="1.333" height="2.667" x="5.333" rx=".667"/>
                        <rect width="2.667" height="1.333" x="1.286" y="1.953" rx=".667"/>
                        <rect width="1.333" height="2.667" x="1.953" y="8.047" rx=".667"/>
                        <rect width="2.667" height="1.333" x="8.047" y="8.714" rx=".667"/>
                        <rect width="1.333" height="2.667" x="8.714" y="1.286" rx=".667"/>
                    </g>
                    <g fill="#FFF" transform="translate(160 12)">
                        <rect width="2.667" height="1.333" y="5.333" rx=".667"/>
                        <rect width="1.333" height="2.667" x="5.333" y="9.333" rx=".667"/>
                        <rect width="2.667" height="1.333" x="9.333" y="5.333" rx=".667"/>
                        <rect width="1.333" height="2.667" x="5.333" rx=".667"/>
                        <rect width="2.667" height="1.333" x="1.286" y="1.953" rx=".667"/>
                        <rect width="1.333" height="2.667" x="1.953" y="8.047" rx=".667"/>
                        <rect width="2.667" height="1.333" x="8.047" y="8.714" rx=".667"/>
                        <rect width="1.333" height="2.667" x="8.714" y="1.286" rx=".667"/>
                    </g>
                    <g fill="#FFF" transform="translate(217 10)">
                        <rect width="2.667" height="1.333" y="5.333" rx=".667"/>
                        <rect width="1.333" height="2.667" x="5.333" y="9.333" rx=".667"/>
                        <rect width="2.667" height="1.333" x="9.333" y="5.333" rx=".667"/>
                        <rect width="1.333" height="2.667" x="5.333" rx=".667"/>
                        <rect width="2.667" height="1.333" x="1.286" y="1.953" rx=".667"/>
                        <rect width="1.333" height="2.667" x="1.953" y="8.047" rx=".667"/>
                        <rect width="2.667" height="1.333" x="8.047" y="8.714" rx=".667"/>
                        <rect width="1.333" height="2.667" x="8.714" y="1.286" rx=".667"/>
                    </g>
                    <path fill="#FFF" d="M184.5 26.496c0-.825-.672-1.496-1.5-1.496-.834 0-1.5.67-1.5 1.496V28.5c0 .552-.443 1-1 1h-2.004c-.825 0-1.496.672-1.496 1.5 0 .834.67 1.5 1.496 1.5h2.004c.552 0 1 .443 1 1v2.004c0 .825.672 1.496 1.5 1.496.834 0 1.5-.67 1.5-1.496V33.5c0-.552.443-1 1-1h2.004c.825 0 1.496-.672 1.496-1.5 0-.834-.67-1.5-1.496-1.5H185.5c-.552 0-1-.443-1-1v-2.004zM65.5 73.496C65.5 72.67 64.828 72 64 72c-.834 0-1.5.67-1.5 1.496V75.5c0 .552-.443 1-1 1h-2.004C58.67 76.5 58 77.172 58 78c0 .834.67 1.5 1.496 1.5H61.5c.552 0 1 .443 1 1v2.004c0 .825.672 1.496 1.5 1.496.834 0 1.5-.67 1.5-1.496V80.5c0-.552.443-1 1-1h2.004C69.33 79.5 70 78.828 70 78c0-.834-.67-1.5-1.496-1.5H66.5c-.552 0-1-.443-1-1v-2.004zM34.5 97.496C34.5 96.67 33.828 96 33 96c-.834 0-1.5.67-1.5 1.496V99.5c0 .552-.443 1-1 1h-2.004c-.825 0-1.496.672-1.496 1.5 0 .834.67 1.5 1.496 1.5H30.5c.552 0 1 .443 1 1v2.004c0 .825.672 1.496 1.5 1.496.834 0 1.5-.67 1.5-1.496V104.5c0-.552.443-1 1-1h2.004c.825 0 1.496-.672 1.496-1.5 0-.834-.67-1.5-1.496-1.5H35.5c-.552 0-1-.443-1-1v-2.004zM63.375 104.87c0-1.031-.84-1.87-1.875-1.87a1.868 1.868 0 0 0-1.875 1.87v2.749c0 .555-.446 1.006-1.006 1.006h-2.75c-1.03 0-1.869.84-1.869 1.875 0 1.043.837 1.875 1.87 1.875h2.749c.555 0 1.006.446 1.006 1.006v2.75c0 1.03.84 1.869 1.875 1.869a1.868 1.868 0 0 0 1.875-1.87v-2.749c0-.555.446-1.006 1.006-1.006h2.75c1.03 0 1.869-.84 1.869-1.875a1.868 1.868 0 0 0-1.87-1.875h-2.749a1.003 1.003 0 0 1-1.006-1.006v-2.75zM201.5 60.496c0-.825-.672-1.496-1.5-1.496-.834 0-1.5.67-1.5 1.496V62.5c0 .552-.443 1-1 1h-2.004c-.825 0-1.496.672-1.496 1.5 0 .834.67 1.5 1.496 1.5h2.004c.552 0 1 .443 1 1v2.004c0 .825.672 1.496 1.5 1.496.834 0 1.5-.67 1.5-1.496V67.5c0-.552.443-1 1-1h2.004c.825 0 1.496-.672 1.496-1.5 0-.834-.67-1.5-1.496-1.5H202.5c-.552 0-1-.443-1-1v-2.004z"/>
                    <g fill="#FFF" transform="translate(213 67)">
                        <rect width="2" height="8" x="3" rx="1"/>
                        <rect width="8" height="2" y="3" rx="1"/>
                    </g>
                    <rect width="80" height="107" x="92" y="36" stroke="#323F4E" stroke-width="4" rx="8"/>
                    <rect width="14" height="6" x="85" y="64" fill="#323F4E" rx="3"/>
                    <rect width="14" height="6" x="85" y="87" fill="#323F4E" rx="3"/>
                    <rect width="14" height="6" x="85" y="109" fill="#323F4E" rx="3"/>
                    <rect width="14" height="16" x="171" y="50" fill="#323F4E" rx="3"/>
                    <rect width="14" height="16" x="171" y="70" fill="#323F4E" rx="3"/>
                    <rect width="14" height="16" x="171" y="89" fill="#323F4E" rx="3"/>
                    <rect width="14" height="16" x="171" y="109" fill="#323F4E" rx="3"/>
                </g>
            </g>
            <g fill="#000" mask="url(#g)">
                <g transform="translate(165 266)">
                    <rect width="7" height="3" y="8" rx="1.5"/>
                    <rect width="5" height="5" x="26" y="5" rx="2"/>
                    <path fill-rule="nonzero" d="M5.505 3h18.99c.28 0 .505.224.505.498v27.004a.501.501 0 0 1-.505.498H5.505A.501.501 0 0 1 5 30.502V3.498C5 3.224 5.225 3 5.505 3zM2 30.502A3.501 3.501 0 0 0 5.505 34h18.99A3.501 3.501 0 0 0 28 30.502V3.498A3.501 3.501 0 0 0 24.495 0H5.505A3.501 3.501 0 0 0 2 3.498v27.004z"/>
                    <rect width="7" height="3" y="15" rx="1.5"/>
                    <rect width="7" height="3" y="22" rx="1.5"/>
                    <rect width="7" height="2" x="12" y="10.999" rx="1"/>
                    <rect width="7" height="2" x="12" y="16" rx="1"/>
                    <rect width="7" height="2" x="12" y="21" rx="1"/>
                    <rect width="5" height="5" x="26" y="11" rx="2"/>
                    <rect width="5" height="5" x="26" y="17" rx="2"/>
                    <rect width="5" height="5" x="26" y="23" rx="2"/>
                </g>
            </g>
            <g mask="url(#g)">
                <g transform="translate(219 268)">
                    <rect width="3" height="7" x="17" fill="#000" rx="1.5"/>
                    <rect width="3" height="7" x="6" fill="#000" rx="1.5"/>
                    <path stroke="#000" stroke-width="3" d="M1.5 5v24c0 .826.673 1.5 1.5 1.5h15.005c.124 0 .471-.154.556-.247l5.658-6.223c.12-.131.281-.55.281-.73V5.007c0-.834-.674-1.508-1.508-1.508H3.008C2.172 3.5 1.5 4.171 1.5 5z"/>
                    <path stroke="#000" stroke-width="3" d="M21.379 24.5H25l-1.06-2.56-2.561 2.56zM18.5 27.379l-2.56 2.56L18.5 31v-3.621z"/>
                    <rect width="2" height="2" x="6" y="9" fill="#000" rx="1"/>
                    <rect width="2" height="2" x="9" y="9" fill="#000" rx="1"/>
                    <rect width="2" height="2" x="12" y="9" fill="#000" rx="1"/>
                    <rect width="2" height="2" x="15" y="9" fill="#000" rx="1"/>
                    <rect width="2" height="2" x="18" y="9" fill="#000" rx="1"/>
                    <path stroke="#000" stroke-linecap="round" stroke-width="1.5" d="M7.297 24.966c6.936-4.924 2.885-12.07.23-11.028-2.108.828-1.235 4.933 1.29 7.357 2.125 2.042 4.884 2.764 5.187.278.664-5.437.513-3.61 2.465-1.941 1.953 1.668 3.448 1.022 2.566-1.468"/>
                    <circle cx="20.75" cy="15.75" r="1" fill="#000"/>
                </g>
            </g>
            <g mask="url(#g)">
                <path stroke="#000" stroke-width="2" d="M346.05 276.908c1.487-1.487 3.825-1.561 5.221-.165 1.396 1.397 1.322 3.735-.165 5.222l-11.827 11.827c-.783.783-2.289 1.626-3.362 1.883l-3.748.898c-.535.128-.863-.205-.732-.75l.9-3.728c.258-1.073 1.106-2.58 1.885-3.36l11.827-11.827z"/>
                <path stroke="#000" stroke-linecap="round" stroke-width="2" d="M336.555 290.575l.938.938"/>
                <path fill="#000" d="M331.665 297.58l.736-4.47 3.61 3.61z"/>
                <path stroke="#000" stroke-linecap="round" stroke-width="2" d="M346.198 280.932l.938.938"/>
            </g>
            <g mask="url(#g)">
                <path fill="#000" d="M284.71 274.06l-1.873 11.465h3.694z"/>
                <path stroke="#000" stroke-width="2" d="M275.755 275.629l-4.943-6.566-.575.072c-.442.055-.777-.04-.98-.242-.512-.512-.277-1.818.77-2.866 1.048-1.047 2.354-1.282 2.866-.77.22.22.312.595.226 1.086l-.105.597 6.288 4.818.515-.186c1.252-.453 2.33-.329 2.926.266 1.04 1.04.565 3.467-1.327 5.36-1.892 1.891-4.319 2.366-5.36 1.326-.512-.513-.677-1.381-.416-2.433l.115-.462z"/>
                <path fill="#000" d="M290 279.007h-.011a1.496 1.496 0 0 1-1.489-1.503A1.496 1.496 0 0 1 290 276h12.993c1.109 0 2.007.898 2.007 2.005v19.99a2.006 2.006 0 0 1-2.007 2.005h-22.986a2.006 2.006 0 0 1-2.007-2.005V286h.003a1.496 1.496 0 0 1 1.486-1.6 1.496 1.496 0 0 1 1.485 1.6h.003v11.052h20.841v-18.045H290z"/>
                <g fill="#000" transform="translate(287 283)">
                    <path fill-rule="nonzero" d="M5 0h3.801c.549 0 .993.446.993.993v7.808a.994.994 0 0 1-.993.993H.993A.994.994 0 0 1 0 8.801V5h2v3.801c0-.557-.45-1.007-1.007-1.007h7.808c-.557 0-1.007.45-1.007 1.007V.993C7.794 1.55 8.244 2 8.801 2H5V0z"/>
                    <circle cx="5" cy="1" r="1"/>
                    <circle cx="1" cy="5" r="1"/>
                </g>
            </g>
        </g>
    </g>
</svg>
