<svg xmlns="http://www.w3.org/2000/svg" width="39" height="42" viewBox="0 0 39 42">
    <g fill="none" fill-rule="evenodd">
        <circle cx="26.151" cy="29.321" r="12.679" fill="#FFDBDB"/>
        <circle cx="21.396" cy="3.17" r="3.17" fill="#FFDBDB"/>
        <path fill="#6B35C1" d="M31.296 30.833c-.613 2.763-2.59 4.908-5.044 6.286-1.635-1.267-1.65-4.543-.862-6.576l2.004-5.168c.12-.304.24-.626.354-.955 2.33 1.33 4.159 3.658 3.548 6.413m-10.299-5.802c-.02-1.628.444-3.237.935-4.94.187-.65.368-1.318.532-1.991.514.094 1.006.4 1.37.69 1.312 1.041 2.148 2.69 2.145 3.366-.002.763-.316 1.56-.649 2.406l-2.009 5.18c-.099.252-.182.523-.26.802-1.214-1.321-2.046-3.915-2.064-5.513m-1.612-4.074c-.686-1.09-1.323-2.75-1.788-4.708-.295-1.241-.51-2.545-.712-3.818.275.23.54.465.792.71.33.318.68.621 1.027.92 1.386 1.195 1.975 1.814 1.787 2.745-.175.876-.426 1.748-.691 2.67a66 66 0 0 0-.415 1.48m8.812 1.194c-.002-1.534-1.31-3.77-2.983-5.099-.83-.657-1.683-1.047-2.52-1.164-.26-1.535-1.499-2.608-2.542-3.507-.313-.27-.632-.544-.93-.832-.66-.642-1.379-1.204-2.072-1.748-.228-.179-.454-.356-.68-.538-.08-.065-.156-.137-.232-.207l-2.615-2.301.592 3.157c.159.843.293 1.695.428 2.547.224 1.415.457 2.876.794 4.303.438 1.839 1.436 5.167 3.214 6.783.06.055.127.104.196.143-.049.451-.074.907-.069 1.37.03 2.456 1.431 6.568 3.901 7.997-.057 1.82.347 3.703 1.418 5.035-1.436.504-2.937.776-4.37.776l-.038-.001A17.412 17.412 0 0 1 7.31 33.689C4.012 30.368 2.22 25.96 2.22 21.279c0-10.222 5.122-15.317 4.656-14.918A19.745 19.745 0 0 0 0 21.271a19.618 19.618 0 0 0 5.738 13.982 19.617 19.617 0 0 0 13.943 5.83h.047c2.32 0 4.822-.592 7.064-1.724l.03-.015c3.172-1.61 5.815-4.313 6.64-8.032.92-4.146-1.895-7.505-5.265-9.162"/>
    </g>
</svg>
